<?xml version="1.0" encoding="utf-8"?>
<!-- Generator: Adobe Illustrator 16.0.0, SVG Export Plug-In . SVG Version: 6.00 Build 0)  -->
<!DOCTYPE svg PUBLIC "-//W3C//DTD SVG 1.1//EN" "http://www.w3.org/Graphics/SVG/1.1/DTD/svg11.dtd">
<svg version="1.1" id="Layer_1" xmlns="http://www.w3.org/2000/svg" xmlns:xlink="http://www.w3.org/1999/xlink" x="0px" y="0px"
	 width="268.057px" height="166.639px" viewBox="0 0 268.057 166.639" enable-background="new 0 0 268.057 166.639"
	 xml:space="preserve">
<g>
	<path fill="#20B4AD" d="M199.931,67.416c-4.398-7.183-11.123-11.134-19.824-11.061c-2.429,0.068-4.713,0.347-7.088,1.191
		c-3.893,1.384-7.166,3.385-9.846,6.486c-2.434,2.814-3.966,6.011-5.101,9.583c-1.67,5.245-0.773,10.161,1.163,14.965
		c1.491,3.695,4.243,6.602,7.097,9.359c4.041,3.909,8.142,7.767,12.015,11.835c1.377,1.449,2.263,1.487,3.57,0.196
		c3.807-3.755,7.782-7.345,11.416-11.255c2.739-2.947,5.705-5.645,7.532-9.505C204.452,81.636,204.131,74.274,199.931,67.416z
		 M196.848,84.258c-0.706,3.069-2.673,5.686-5.016,7.937c-3.445,3.312-6.778,6.741-10.188,10.093
		c-0.82,0.807-1.779,1.141-2.729,0.137c-4.188-4.439-8.891-8.383-12.725-13.164c-2.311-2.88-3.32-6.18-3.062-9.471
		c-0.354-8.378,4.396-14.562,11.26-16.799c8.315-2.71,16.845,0.016,21.3,8.541C197.885,75.728,197.826,80.005,196.848,84.258z"/>
	<path fill="#20B4AD" d="M94.343,110.009c5.048-5.078,10.178-10.076,15.154-15.222c4.221-4.363,6.215-9.691,6.229-16.646
		c-0.129-5.705-2.586-11.406-7.416-15.688c-6.275-5.562-13.553-7.516-21.974-5.054c-7.162,2.095-12.017,6.648-14.747,13.182
		c-3.398,8.132-2.238,16.039,3.442,22.95c4.947,6.018,10.933,11.053,16.289,16.688C92.419,111.376,93.367,110.99,94.343,110.009z
		 M90.577,101.583c-3.853-3.993-8.086-7.614-11.603-11.936c-3.033-3.725-3.852-8.063-3.281-12.674
		c0.851-6.884,4.921-11.41,11.109-14.057c1.878-0.806,4.061-0.836,6.177-0.79c7.046,0.138,12.191,3.196,15.375,9.647
		c3.373,6.84,1.498,14.911-3.115,19.567c-3.364,3.398-6.694,6.829-10.065,10.218C93.171,103.576,92.516,103.592,90.577,101.583z"/>
</g>
<g>
	<path fill="none" d="M149.969,109.926c-1.778-1.628-5.381-1.886-7.254-0.354c-1.546,1.264-2.979,2.68-4.37,4.117
		c-1.154,1.192-2.128,1.618-3.43,0.146c-1.144-1.291-2.492-2.403-3.763-3.579c-1.212-1.12-2.537-1.966-4.034-1.601
		c-2.456-0.01-4.215,0.875-4.954,2.351c-0.947,1.891-0.745,5.404,0.607,6.716c4.257,4.135,8.239,8.541,12.62,12.556
		c1.129,1.037,1.579,0.781,2.435-0.086c4.129-4.179,8.326-8.294,12.442-12.485C151.989,115.956,151.753,111.561,149.969,109.926z"/>
	<path fill="none" d="M161.089,108.546c-4.262-4.318-8.36-8.811-13.007-12.778c-3.709-3.169-6.908-6.941-10.261-10.515
		c-1.01-1.076-1.662-1.035-2.672,0.004c-3.583,3.679-7.292,7.236-10.879,10.911c-7.308,7.487-15.064,14.526-22.163,22.217
		c-7.053,7.642-5.456,18.704,2.282,24.663c3.252,2.506,7.024,4.078,11.356,3.68c7.198-0.66,11.625-5.531,16.063-10.424
		c0.579-0.635,0.4-1.004-0.147-1.533c-2.093-2.024-4.251-4.002-6.178-6.182c-2.872-3.25-6.716-5.625-8.68-9.692
		c-3.426-7.1,1.344-15.398,9.212-16.267c3.484-0.383,6.354,1.092,8.863,3.289c1.162,1.017,1.92,1.169,3.144,0.047
		c1.96-1.799,4.322-3.01,7.01-3.324c6.007-0.702,13.206,4.926,12.294,11.699c-0.178,1.551,0.039,3.083-0.762,4.631
		c-1.81,3.494-4.726,5.982-7.518,8.516c-2.374,2.156-4.652,4.4-6.947,6.629c-0.715,0.692-1.57,1.59-0.434,2.635
		c3.959,3.633,7.102,8.145,12.981,9.463c4.352,0.975,8.139,0.154,11.811-1.668c4.286-2.129,6.826-5.775,8.232-10.406
		c1.392-4.588,0.703-8.74-1.603-12.763C170.106,116.165,165.196,112.708,161.089,108.546z"/>
	<path fill="#0E7288" d="M175.403,114.713c-8.123-8.485-16.544-16.688-24.854-24.994c-2.638-2.639-5.186-5.368-8.01-7.825
		c-0.631-0.55-1.345-1.345-1.228-2.163c2.835-2.718,5.688-5.417,8.356-8.288c2.738-2.946,5.705-5.645,7.531-9.505
		c2.771-5.856,3.199-11.585,1.314-17.052c-0.555-1.604-1.298-3.188-2.25-4.746c-4.398-7.182-11.123-11.134-19.824-11.06
		c-2.43,0.067-4.713,0.346-7.088,1.19c-3.893,1.384-7.166,3.386-9.846,6.486c-2.248,2.601-3.722,5.53-4.829,8.777
		c-0.091,0.268-0.185,0.533-0.271,0.806c-1.67,5.246-0.773,10.162,1.163,14.965c1.491,3.696,4.243,6.603,7.097,9.36
		c3.083,2.982,6.2,5.937,9.226,8.977c0.353,0.663-0.076,1.17-1.291,2.384c-10.218,10.203-20.396,20.443-30.658,30.603
		c-4.099,4.057-7.142,8.567-7.556,14.51c-0.339,4.841,0.229,9.455,2.78,13.734c2.677,4.492,6.313,7.639,11.214,9.651
		c5.024,2.066,10.087,1.97,15.051,0.722c4.557-1.146,8.206-4.185,11.327-7.718c3.269-3.696,3.688-3.764,7.081-0.305
		c4.242,4.328,8.933,7.779,15.177,8.537c7.706,0.938,14.479-1.018,19.814-6.768c3.325-3.584,5.576-7.664,5.969-12.861
		C181.306,125.476,179.987,119.501,175.403,114.713z M122.527,61.984c-1.472-1.835-2.411-3.841-2.835-5.906
		c-0.242-1.177-0.32-2.37-0.227-3.564c-0.354-8.378,4.396-14.562,11.26-16.799c8.315-2.71,16.845,0.016,21.299,8.541
		c1.92,3.671,2.116,7.403,1.479,11.127c-0.092,0.534-0.198,1.067-0.321,1.601c-0.707,3.069-2.673,5.687-5.016,7.938
		c-3.445,3.312-6.778,6.741-10.188,10.092c-0.82,0.807-1.779,1.141-2.729,0.137C131.062,70.708,126.361,66.765,122.527,61.984z
		 M137.828,130.192c-0.855,0.867-1.306,1.123-2.435,0.086c-4.381-4.015-8.363-8.421-12.62-12.556
		c-1.353-1.312-1.554-4.825-0.607-6.716c0.738-1.476,2.498-2.359,4.954-2.351c1.497-0.365,2.821,0.479,4.034,1.601
		c1.271,1.176,2.619,2.288,3.763,3.579c1.303,1.473,2.275,1.047,3.43-0.146c1.392-1.438,2.823-2.854,4.37-4.118
		c1.873-1.53,5.476-1.272,7.254,0.354c1.783,1.635,2.021,6.029,0.301,7.78C146.153,121.898,141.957,126.013,137.828,130.192z
		 M174.692,134.14c-1.406,4.631-3.946,8.277-8.232,10.406c-3.672,1.822-7.459,2.643-11.811,1.668
		c-5.881-1.318-9.022-5.83-12.981-9.463c-1.137-1.045-0.283-1.941,0.434-2.635c2.295-2.229,4.574-4.474,6.947-6.628
		c2.792-2.533,5.708-5.021,7.518-8.517c0.801-1.548,0.584-3.08,0.762-4.631c0.912-6.773-6.287-12.401-12.294-11.699
		c-2.688,0.314-5.05,1.525-7.01,3.324c-1.224,1.122-1.981,0.97-3.144-0.047c-2.509-2.197-5.379-3.672-8.863-3.289
		c-7.868,0.867-12.638,9.167-9.212,16.267c1.964,4.067,5.808,6.442,8.68,9.692c1.926,2.18,4.085,4.156,6.178,6.182
		c0.548,0.529,0.727,0.898,0.147,1.533c-4.439,4.894-8.865,9.764-16.063,10.424c-4.332,0.398-8.104-1.174-11.356-3.68
		c-7.738-5.959-9.335-17.021-2.282-24.663c7.099-7.688,14.855-14.729,22.163-22.217c3.587-3.675,7.295-7.232,10.879-10.911
		c1.011-1.039,1.662-1.08,2.672-0.004c3.353,3.572,6.552,7.346,10.261,10.515c4.646,3.97,8.746,8.46,13.007,12.778
		c4.107,4.162,9.019,7.618,12.002,12.83C175.396,125.4,176.084,129.552,174.692,134.14z"/>
</g>
</svg>
