<?xml version="1.0" encoding="utf-8"?>
<!-- Generator: Adobe Illustrator 16.0.0, SVG Export Plug-In . SVG Version: 6.00 Build 0)  -->
<!DOCTYPE svg PUBLIC "-//W3C//DTD SVG 1.1//EN" "http://www.w3.org/Graphics/SVG/1.1/DTD/svg11.dtd">
<svg version="1.1" id="Layer_1" xmlns="http://www.w3.org/2000/svg" xmlns:xlink="http://www.w3.org/1999/xlink" x="0px" y="0px"
	 width="927.305px" height="150px" viewBox="0 0 927.305 150" enable-background="new 0 0 927.305 150" xml:space="preserve">
<g>
	<g>
		<path fill-rule="evenodd" clip-rule="evenodd" fill="#3D3D3D" d="M578.64,86.933c0.432,0.113,1.346,0.246,2.174,0.591
			c1.896,0.793,3.713,1.785,5.629,2.521c3.178,1.221,4.215,3.465,2.564,6.442c-1.307,2.357-2.867,4.579-4.406,6.797
			c-1.197,1.724-3.084,2.838-4.906,1.753c-1.25-0.744-2.467-2.678-2.498-4.106c-0.07-3.2-1.041-5.964-2.426-8.729
			C573.304,89.276,574.858,86.942,578.64,86.933z"/>
		<path fill-rule="evenodd" clip-rule="evenodd" fill="#3D3D3D" d="M415.877,94.563c-1.171-0.825-2.932-1.426-3.354-2.535
			c-0.454-1.198-0.154-3.33,0.691-4.25c2.252-2.451,3.82-5.142,4.746-8.291c0.51-1.735,1.662-3.318,3.504-2.776
			c1.539,0.452,3.284,1.691,4.013,3.07c1.208,2.29,1.68,4.971,2.452,7.489c0.793,2.586-0.576,5.219-3.248,5.69
			c-2.829,0.499-5.722,0.64-8.587,0.937C416.022,94.119,415.95,94.342,415.877,94.563z"/>
		<path fill-rule="evenodd" clip-rule="evenodd" fill="#3D3D3D" d="M894.345,22.151c1.246-0.092,3.062-0.303,4.881-0.342
			c3.236-0.07,5.088,2.263,4.559,5.468c-0.361,2.192-0.691,4.409-0.771,6.624c-0.086,2.371-1.369,3.747-3.391,4.359
			c-2.172,0.658-3.193-1.08-4.352-2.529c-1.631-2.037-3.225-4.174-5.191-5.846c-1.721-1.46-3.277-2.807-2.375-5.156
			c0.893-2.328,2.967-2.929,5.318-2.696C893.271,22.058,893.519,22.077,894.345,22.151z"/>
		<path fill-rule="evenodd" clip-rule="evenodd" fill="#3D3D3D" d="M471.64,88.205c0.102-0.454,0.412-1.259,0.436-2.072
			c0.055-1.761-0.078-3.525-0.062-5.288c0.016-1.916-0.434-4.088,0.314-5.68c0.912-1.939,3.449-1.908,5.439-0.458
			c2.193,1.599,4.359,3.233,6.498,4.903c1.646,1.288,2.248,4.03,0.779,5.586c-2.418,2.564-5.025,5.055-7.922,7.036
			C474.606,93.953,471.45,91.647,471.64,88.205z"/>
		<path fill-rule="evenodd" clip-rule="evenodd" fill="#3D3D3D" d="M697.3,85.233c-0.152,0.427-0.457,1.445-0.873,2.418
			c-0.773,1.819-1.676,3.586-2.406,5.422c-0.82,2.067-2.156,3.315-4.473,3.251c-2.131-0.059-3.059-1.409-3.449-3.297
			c-0.607-2.942-1.373-5.737-3.529-8.093c-1.33-1.455-1.691-3.573-0.199-5.264c1.49-1.688,3.357-1.756,5.451-0.813
			c1.479,0.666,3.152,0.938,4.762,1.264C696.005,80.812,697.323,82.016,697.3,85.233z"/>
		<path fill-rule="evenodd" clip-rule="evenodd" fill="#3D3D3D" d="M851.603,71.938c-0.553-1.873-1.025-3.772-1.676-5.609
			c-0.738-2.085-1.623-4.177,0.33-6.01c1.375-1.293,4.131-0.871,6.248,0.584c1.285,0.885,2.664,1.661,4.078,2.326
			c4.533,2.136,5.064,5.318,1.498,8.742c-1.246,1.195-2.373,2.555-3.348,3.979c-1.297,1.896-3.018,2.761-5.129,2.045
			c-1.957-0.663-2.574-2.435-2.471-4.439c0.025-0.498,0.004-0.998,0.004-1.497C851.292,72.019,851.446,71.979,851.603,71.938z"/>
		<path fill-rule="evenodd" clip-rule="evenodd" fill="#3D3D3D" d="M741.271,99.835c0.141-0.816,0.369-1.629,0.406-2.451
			c0.094-2.095,0.291-4.212,0.092-6.287c-0.199-2.094-0.918-4.186,1.553-5.441c2.084-1.06,4.104-0.47,5.984,1.477
			c1.494,1.547,3.188,2.896,4.721,4.407c2.256,2.225,2.123,4.917-0.318,6.851c-1.996,1.581-3.918,3.32-6.115,4.557
			c-1.215,0.682-3.115,0.974-4.361,0.511c-1.061-0.394-1.625-2.12-2.41-3.257C740.972,100.079,741.12,99.957,741.271,99.835z"/>
		<path fill-rule="evenodd" clip-rule="evenodd" fill="#3D3D3D" d="M103.267,82.681c-0.197-3.152-0.314-6.312-0.62-9.453
			c-0.204-2.104-0.229-3.947,2.047-5.039c2.257-1.084,3.822,0.195,5.372,1.437c1.54,1.233,2.924,2.661,4.459,3.903
			c3.156,2.551,3.052,5.545-0.23,7.952c-1.521,1.115-2.836,2.509-4.311,3.692c-1.429,1.146-2.942,2.367-4.941,1.485
			C103.4,85.934,102.358,84.705,103.267,82.681z"/>
		<path fill-rule="evenodd" clip-rule="evenodd" fill="#3D3D3D" d="M49.462,81.147c1.363-0.278,2.758-0.452,4.083-0.856
			c4.12-1.257,6.752,0.639,6.632,4.861c-0.063,2.235-0.145,4.47-0.199,6.704c-0.05,2.12-1.001,3.728-2.983,4.419
			c-2.094,0.731-3.504-0.255-4.795-2.044c-1.418-1.966-3.163-3.765-5.029-5.319c-1.662-1.384-3.834-2.34-3.279-4.985
			C44.393,81.539,45.886,80.831,49.462,81.147z"/>
		<path fill-rule="evenodd" clip-rule="evenodd" fill="#3D3D3D" d="M535.435,113.522c-0.359,2.066-1.51,3.332-3.357,4.062
			c-2.068,0.818-4.057,1.949-6.197,2.447c-1.541,0.358-3.506,0.372-4.859-0.306c-1.785-0.893-1.561-2.787-0.889-4.635
			c1.061-2.921,1.904-5.925,2.76-8.916c0.426-1.486,0.291-3.256,2.367-3.667c2.041-0.404,3.859-0.09,5.049,1.771
			c1.605,2.511,3.129,5.073,4.639,7.643C535.229,112.402,535.286,113.016,535.435,113.522z"/>
		<path fill-rule="evenodd" clip-rule="evenodd" fill="#3D3D3D" d="M367.75,56.325c0.068-0.493,0.039-1.027,0.221-1.474
			c1.115-2.725,0.968-5.367,0.243-8.232c-0.837-3.312,1.165-5.329,4.299-4.944c1.794,0.222,9.114,6.77,9.491,8.51
			c0.472,2.18-0.671,3.627-2.23,4.896c-1.6,1.303-3.156,2.66-4.766,3.949c-1.685,1.348-3.662,1.945-5.528,0.746
			c-0.991-0.638-1.476-2.062-2.188-3.133C367.444,56.538,367.598,56.431,367.75,56.325z"/>
		<path fill-rule="evenodd" clip-rule="evenodd" fill="#3D3D3D" d="M318.094,57.138c-1.199,0.25-2.417,0.438-3.596,0.764
			c-2.74,0.758-4.914,0.172-5.999-1.697c-0.995-1.715-0.128-3.52,1.765-5.682c1.699-1.944,3.052-4.272,4.175-6.615
			c0.873-1.82,1.993-2.945,3.953-2.738c1.952,0.207,3.367,1.319,3.85,3.372c0.454,1.933,0.896,3.87,1.429,5.78
			C325.104,55.472,323.419,57.649,318.094,57.138z"/>
		<path fill-rule="evenodd" clip-rule="evenodd" fill="#3D3D3D" d="M163.265,43.312c-0.073,0.282-0.207,0.841-0.364,1.394
			c-0.7,2.467-1.127,5.064-2.217,7.346c-0.64,1.338-2.179,2.627-3.598,3.121c-1.97,0.687-3.436-0.945-3.853-2.645
			c-0.793-3.236-2.596-5.693-4.955-7.843c-1.42-1.294-2.06-3.083-0.963-4.405c0.941-1.135,2.841-1.889,4.382-2.014
			c2.355-0.19,4.764,0.318,7.152,0.503C161.22,38.952,163.2,40.843,163.265,43.312z"/>
		<path fill-rule="evenodd" clip-rule="evenodd" fill="#3D3D3D" d="M631.526,115.577c0.078-0.392,0.264-1.201,0.393-2.019
			c0.381-2.407,0.955-4.811,1.039-7.23c0.078-2.208,0.113-4.287,2.555-5.096c2.512-0.832,3.996,0.772,5.377,2.589
			c1.15,1.514,2.439,2.926,3.723,4.332c2.832,3.102,2.107,6.254-1.74,7.858c-1.355,0.565-2.574,1.46-3.863,2.191
			c-0.857,0.487-1.682,1.087-2.6,1.401C633.524,120.589,631.427,119.009,631.526,115.577z"/>
		<path fill-rule="evenodd" clip-rule="evenodd" fill="#3D3D3D" d="M791.427,57.19c3.098,0.426,6.221,0.719,9.283,1.322
			c2.207,0.435,3.355,2.938,2.623,5.168c-0.854,2.602-1.736,5.193-2.641,7.778c-0.688,1.963-2.229,2.97-4.188,2.976
			c-1.857,0.005-3.074-1.174-3.463-3.02c-0.678-3.207-2.5-5.659-4.666-8.046c-0.832-0.917-1.357-2.977-0.889-3.989
			c0.584-1.26,2.344-1.973,3.596-2.922C791.198,56.702,791.312,56.946,791.427,57.19z"/>
		<path fill-rule="evenodd" clip-rule="evenodd" fill="#3D3D3D" d="M6.882,123.608c-0.003-2.643,3.305-4.789,5.477-3.752
			c2.683,1.281,5.33,2.654,7.901,4.146c2.616,1.519,2.892,4.691,0.873,7.053c-1.385,1.619-2.409,3.601-3.975,4.994
			c-1.231,1.096-3.057,2.146-4.595,2.114c-1.796-0.039-2.976-1.785-2.773-3.795c0.342-3.383-0.667-6.356-2.359-9.198
			C7.104,124.619,6.994,123.937,6.882,123.608z"/>
		<path fill-rule="evenodd" clip-rule="evenodd" fill="#3D3D3D" d="M207.117,56.95c-3.876,0.033-5.148-2.891-3.562-6.459
			c1.118-2.516,1.772-5.258,2.444-7.946c0.41-1.638,0.458-3.377,2.546-3.826c2.219-0.478,3.936,0.329,5.115,2.201
			c1.41,2.239,2.766,4.515,4.087,6.809c1.382,2.399,0.501,4.935-1.99,5.956c-2.364,0.968-4.71,1.98-7.084,2.922
			C208.067,56.847,207.384,56.894,207.117,56.95z"/>
		<path fill-rule="evenodd" clip-rule="evenodd" fill="#3D3D3D" d="M261.749,23.23c0.383,0.11,1.361,0.302,2.264,0.674
			c1.826,0.753,3.567,1.729,5.424,2.384c3.159,1.116,4.327,3.517,2.702,6.366c-1.424,2.497-2.878,5.049-4.766,7.18
			c-0.908,1.024-2.994,1.767-4.275,1.47c-1.128-0.262-2.607-2.119-2.66-3.326c-0.154-3.589-1.235-6.766-2.703-9.965
			C256.509,25.337,258.108,23.295,261.749,23.23z"/>
		<path fill-rule="evenodd" clip-rule="evenodd" fill="#3D3D3D" d="M280.959,27.486c1.472,1.331,3.217,2.2,3.711,3.532
			c0.621,1.674-1.021,2.662-2.568,3.377c-2.034,0.939-3.863,1.195-5.832-0.236c-1.533-1.113-1.698-2.43-0.479-3.51
			C277.141,29.452,278.898,28.712,280.959,27.486z"/>
		<path fill-rule="evenodd" clip-rule="evenodd" fill="#3D3D3D" d="M653.411,120.96c-1.66-0.618-2.684-0.909-3.625-1.37
			c-1.623-0.796-3.115-1.826-2.5-3.97c0.414-1.441,3.416-2.448,5.199-1.882c0.551,0.175,1.064,0.46,1.609,0.657
			c1.742,0.631,3.129,1.944,2.518,3.663C656.173,119.295,654.448,120.074,653.411,120.96z"/>
		<path fill-rule="evenodd" clip-rule="evenodd" fill="#3D3D3D" d="M595.521,99.195c-1.057-0.909-2.674-1.74-3.375-3.059
			c-0.73-1.376,1.752-3.797,4.078-4.152c0.951-0.146,2.15-0.196,2.904,0.26c1.027,0.621,2.359,1.74,2.404,2.698
			c0.043,0.957-1.182,2.19-2.145,2.91C598.515,98.507,597.247,98.631,595.521,99.195z"/>
		<path fill-rule="evenodd" clip-rule="evenodd" fill="#3D3D3D" d="M761.876,94.607c-1.854-0.008-4.574-2.121-4.555-3.539
			c0.021-1.667,2.65-3.436,5.127-3.452c2.328-0.016,4.715,1.61,4.695,3.198C767.126,92.434,764.093,94.617,761.876,94.607z"/>
		<path fill-rule="evenodd" clip-rule="evenodd" fill="#3D3D3D" d="M70.729,78.229c0.022,2.479-3.248,5.666-5.732,5.588
			c-1.895-0.061-3.22-2.037-2.602-3.842c0.83-2.425,2.715-3.694,5.001-4.373C69.12,75.091,70.713,76.454,70.729,78.229z"/>
		<path fill-rule="evenodd" clip-rule="evenodd" fill="#3D3D3D" d="M389.039,44.265c0.613,0.072,1.301-0.037,1.742,0.242
			c0.992,0.629,2.419,1.324,2.621,2.229c0.189,0.844-0.761,2.59-1.584,2.881c-1.769,0.627-3.828,0.92-5.668,0.654
			c-0.943-0.137-2.541-2.146-2.322-2.65c0.533-1.233,1.873-2.193,3.051-3.039C387.41,44.199,388.325,44.351,389.039,44.265z"/>
		<path fill-rule="evenodd" clip-rule="evenodd" fill="#3D3D3D" d="M543.403,116.338c-1.566-0.653-2.828-0.854-3.592-1.578
			c-0.979-0.932-1.559-2.283-2.312-3.454c1.289-0.789,2.561-2.178,3.869-2.215c1.586-0.046,3.336,0.844,4.748,1.744
			c0.672,0.428,1.289,2.288,0.957,2.687C546.103,114.688,544.64,115.444,543.403,116.338z"/>
		<path fill-rule="evenodd" clip-rule="evenodd" fill="#3D3D3D" d="M870.974,57.546c1.332,1.133,3.195,1.98,3.277,2.977
			c0.098,1.191-1.047,3.129-2.154,3.624c-1.578,0.707-3.691,0.777-5.432,0.419c-2.053-0.422-2.541-2.59-0.941-3.996
			C867.069,59.389,868.866,58.724,870.974,57.546z"/>
		<path fill-rule="evenodd" clip-rule="evenodd" fill="#3D3D3D" d="M870.853,73.462c-1.215-0.535-2.42-0.899-3.438-1.553
			c-1.535-0.985-1.396-2.365-0.332-3.625c1.777-2.104,5.49-2.473,7.777-0.854c1.568,1.109,1.645,3.377-0.023,4.414
			C873.671,72.571,872.261,72.908,870.853,73.462z"/>
		<path fill-rule="evenodd" clip-rule="evenodd" fill="#3D3D3D" d="M908.759,13.524c-0.092,3.348-3.436,6.777-5.725,6.686
			c-1.953-0.078-2.506-1.57-2.523-3.094c-0.027-2.412,3.406-5.991,5.504-5.578C907.179,11.769,908.136,13.048,908.759,13.524z"/>
		<path fill-rule="evenodd" clip-rule="evenodd" fill="#3D3D3D" d="M388.117,52.275c2.797,0.045,5.498,2.028,5.272,3.872
			c-0.233,1.909-2.722,2.993-5.776,2.518c-2.43-0.379-4.262-1.939-4.156-3.543C383.557,53.593,385.773,52.237,388.117,52.275z"/>
		<path fill-rule="evenodd" clip-rule="evenodd" fill="#3D3D3D" d="M541.228,124.192c-1.662-0.772-3.195-1.081-4.078-2.01
			c-0.889-0.933-1.85-2.804-1.461-3.676c0.438-0.979,2.33-1.721,3.627-1.785c1.186-0.06,2.727,0.639,3.557,1.523
			c0.887,0.948,1.688,2.615,1.465,3.762C544.165,122.892,542.353,123.457,541.228,124.192z"/>
		<path fill-rule="evenodd" clip-rule="evenodd" fill="#3D3D3D" d="M328.017,66.272c-2.136-0.039-4.894-2.051-5.559-4.055
			c-0.771-2.321,0.562-4.02,3.006-3.832c2.257,0.172,5.043,2.637,5.479,4.845C331.309,65.087,330.131,66.311,328.017,66.272z"/>
		<path fill-rule="evenodd" clip-rule="evenodd" fill="#3D3D3D" d="M808.337,64.394c-0.385-0.277-1.727-0.774-2.143-1.691
			c-0.357-0.787,0.25-2.088,0.611-3.097c0.174-0.483,0.697-0.967,1.182-1.191c1.912-0.886,3.914-2.361,5.955-0.654
			c0.689,0.575,1.082,2.072,0.896,3.007C814.45,62.736,811.509,64.431,808.337,64.394z"/>
		<path fill-rule="evenodd" clip-rule="evenodd" fill="#3D3D3D" d="M492.64,75.147c2.041-0.044,3.865,0.762,4.205,2.745
			c0.342,1.993-1.307,3.049-3.16,3.523c-0.08,0.021-0.162,0.039-0.24,0.066c-2.066,0.715-4.02,0.403-5.561-1.086
			c-0.494-0.478-0.762-2.068-0.426-2.375c1.445-1.318,3.152-2.349,4.764-3.484C492.36,74.741,492.501,74.944,492.64,75.147z"/>
		<path fill-rule="evenodd" clip-rule="evenodd" fill="#3D3D3D" d="M169.924,32.792c-0.008,2.678-3.468,5.703-6.12,5.35
			c-1.593-0.212-2.743-1.922-2.324-3.459c0.58-2.127,3.24-4.422,5.39-4.65C168.593,29.85,169.93,31.058,169.924,32.792z"/>
		<path fill-rule="evenodd" clip-rule="evenodd" fill="#3D3D3D" d="M653.661,112.091c-3.416-0.06-5.441-1.479-5.322-3.454
			c0.119-1.938,2.719-3.397,5.512-2.987c0.793,0.116,1.738,0.351,2.262,0.88c0.795,0.806,1.852,1.987,1.738,2.873
			c-0.113,0.881-1.457,1.715-2.412,2.335C654.864,112.109,653.999,112.033,653.661,112.091z"/>
		<path fill-rule="evenodd" clip-rule="evenodd" fill="#3D3D3D" d="M592.39,91.155c-0.479-0.555-1.971-1.511-2.201-2.708
			c-0.451-2.352,2.576-4.433,5.814-4.407c1.9,0.015,3.34,0.681,3.404,2.776C599.468,88.738,595.927,91.203,592.39,91.155z"/>
		<path fill-rule="evenodd" clip-rule="evenodd" fill="#3D3D3D" d="M330.244,51.462c1.59,1.055,3.348,1.928,4.684,3.234
			c0.654,0.641,1.041,2.41,0.617,3.082c-0.535,0.852-2.153,1.697-3.064,1.49c-1.683-0.383-3.436-1.277-4.681-2.462
			c-0.737-0.701-0.913-2.45-0.652-3.567C327.301,52.583,328.803,52.241,330.244,51.462z"/>
		<path fill-rule="evenodd" clip-rule="evenodd" fill="#3D3D3D" d="M492.487,90.05c-2.645-0.049-5.111-1.794-5.021-3.554
			c0.098-1.937,2.795-3.306,5.59-2.836c0.082,0.014,0.164,0.031,0.246,0.047c1.969,0.363,3.859,0.939,3.998,3.352
			C497.396,88.724,495.038,90.097,492.487,90.05z"/>
		<path fill-rule="evenodd" clip-rule="evenodd" fill="#3D3D3D" d="M706.009,80.859c1.457,0.147,3.262,0.155,3.346,2.516
			c0.08,2.296-2.586,4.177-5.869,4.134c-1.736-0.023-3.445-0.2-3.52-2.534C699.892,82.656,702.462,80.856,706.009,80.859z"/>
		<path fill-rule="evenodd" clip-rule="evenodd" fill="#3D3D3D" d="M762.583,103.149c-1.861-0.985-3.48-1.576-4.762-2.59
			c-1.531-1.211-0.992-2.666,0.328-3.774c1.553-1.303,6.105-1.036,7.422,0.574c0.637,0.78,1.32,2.481,0.955,2.935
			C765.599,101.444,764.089,102.125,762.583,103.149z"/>
		<path fill-rule="evenodd" clip-rule="evenodd" fill="#3D3D3D" d="M907.874,25.72c-0.418-0.523-1.674-1.395-1.836-2.436
			c-0.402-2.587,2.961-5.783,5.805-5.426c1.043,0.131,2.516,1.445,2.75,2.46C915.095,22.501,911.46,25.615,907.874,25.72z"/>
		<path fill-rule="evenodd" clip-rule="evenodd" fill="#3D3D3D" d="M29.464,133.143c-2.313-0.462-4.146-1.119-4.554-3.149
			c-0.486-2.417,1.387-3.545,3.416-3.653c1.788-0.096,3.679,0.323,5.374,0.932c0.421,0.151,0.735,2.404,0.278,2.85
			C32.704,131.364,30.999,132.167,29.464,133.143z"/>
		<path fill-rule="evenodd" clip-rule="evenodd" fill="#3D3D3D" d="M224.261,59.961c-3.336-0.057-5.81-2.039-5.74-4.456
			c0.065-2.258,1.86-2.426,3.353-2.473c3.052-0.096,6.053,2.355,5.889,4.576C227.589,59.961,225.804,59.915,224.261,59.961z"/>
		<path fill-rule="evenodd" clip-rule="evenodd" fill="#3D3D3D" d="M802.021,55.058c-0.059-2.778,4.021-6.111,6.592-5.101
			c0.922,0.363,1.979,1.912,1.943,2.883c-0.084,2.376-3.461,5.01-5.842,4.828C803.229,57.556,801.985,56.888,802.021,55.058z"/>
		<path fill-rule="evenodd" clip-rule="evenodd" fill="#3D3D3D" d="M168.784,45.226c-1.241-0.943-2.515-1.475-2.969-2.404
			c-0.333-0.683,0.099-2.254,0.731-2.788c1.381-1.167,3.02-2.216,4.729-2.725c0.841-0.251,2.657,0.562,2.979,1.332
			c0.41,0.981,0.178,2.828-0.537,3.55C172.466,43.452,170.636,44.142,168.784,45.226z"/>
		<path fill-rule="evenodd" clip-rule="evenodd" fill="#3D3D3D" d="M29.041,117.093c1.21,1.02,2.956,1.797,3.209,2.912
			c0.223,0.983-0.964,2.682-1.988,3.462c-1.529,1.166-3.375,2.141-5.487,0.893c-1.901-1.122-2.432-3.373-0.753-4.704
			C25.319,118.628,27.01,118.099,29.041,117.093z"/>
		<path fill-rule="evenodd" clip-rule="evenodd" fill="#3D3D3D" d="M123.136,77.688c1.348,0.691,2.856,1.186,4.005,2.122
			c1.601,1.305,1.406,2.724-0.209,3.923c-1.408,1.045-5.886,1.039-7.143-0.221c-0.695-0.697-1.49-1.93-1.309-2.703
			c0.218-0.936,1.328-1.779,2.233-2.396c0.55-0.374,1.444-0.243,2.184-0.339C122.977,77.945,123.056,77.816,123.136,77.688z"/>
		<path fill-rule="evenodd" clip-rule="evenodd" fill="#3D3D3D" d="M432.457,101.18c-3.028-0.117-5.815-2.683-5.572-5.234
			c0.166-1.751,1.155-2.669,3.016-2.534c2.689,0.195,5.592,3.145,5.48,5.559C435.291,100.932,434.006,101.205,432.457,101.18z"/>
		<path fill-rule="evenodd" clip-rule="evenodd" fill="#3D3D3D" d="M699.749,80.48c-1.51-0.146-2.939-0.619-2.895-2.754
			c0.051-2.524,2.691-4.622,5.857-4.603c1.645,0.01,3.061,0.514,3.131,2.447C705.917,77.655,702.478,80.445,699.749,80.48z"/>
		<path fill-rule="evenodd" clip-rule="evenodd" fill="#3D3D3D" d="M123.399,76.611c-1.111-0.165-2.027-0.038-2.547-0.435
			c-0.979-0.746-2.476-1.869-2.391-2.695c0.11-1.07,1.378-2.38,2.474-2.896c1.176-0.554,2.811-0.632,4.095-0.312
			c1.126,0.279,2.675,1.263,2.871,2.184c0.184,0.863-0.997,2.233-1.884,3.042C125.286,76.163,124.105,76.332,123.399,76.611z"/>
		<path fill-rule="evenodd" clip-rule="evenodd" fill="#3D3D3D" d="M226.539,52.613c-1.599-0.649-2.835-0.846-3.62-1.548
			c-0.947-0.848-2.336-2.474-2.055-3.137c0.471-1.114,2.064-2.32,3.271-2.416c1.595-0.127,3.415,0.528,4.857,1.343
			c0.772,0.436,1.601,2.424,1.284,2.823C229.31,50.897,227.8,51.686,226.539,52.613z"/>
		<path fill-rule="evenodd" clip-rule="evenodd" fill="#3D3D3D" d="M64.552,71.937c0.022,2.649-2.114,5.615-4.204,6.058
			c-0.84,0.179-2.249,0.239-2.565-0.22c-0.629-0.912-1-2.251-0.905-3.365c0.216-2.513,2.055-3.947,4.267-4.626
			c0.808-0.247,2.001,0.341,2.852,0.834C64.427,70.866,64.484,71.755,64.552,71.937z"/>
		<path fill-rule="evenodd" clip-rule="evenodd" fill="#3D3D3D" d="M279.096,19.753c1.262,0.891,2.834,1.43,3.121,2.363
			c0.288,0.938-0.388,2.625-1.205,3.351c-1.657,1.471-3.666,2.7-6.095,1.573c-1.949-0.902-2.477-3.365-0.813-4.665
			C275.475,21.306,277.216,20.712,279.096,19.753z"/>
		<path fill-rule="evenodd" clip-rule="evenodd" fill="#3D3D3D" d="M433.332,86.812c1.179,0.154,1.683,0.177,2.166,0.291
			c2.043,0.479,3.869,1.364,4.201,3.654c0.117,0.811-0.312,2.188-0.924,2.527c-2.068,1.145-4.19,0.553-6.102-0.653
			c-0.541-0.341-1.078-0.898-1.306-1.479c-0.339-0.867-0.856-2.161-0.479-2.7C431.505,87.571,432.781,87.151,433.332,86.812z"/>
		<path fill-rule="evenodd" clip-rule="evenodd" fill="#3D3D3D" d="M483.606,76.249c-0.467-0.368-1.631-0.896-2.111-1.791
			c-0.355-0.659,0.102-1.82,0.357-2.712c0.123-0.427,0.572-0.81,0.957-1.103c1.625-1.24,3.436-2.456,5.393-1.072
			c0.795,0.564,1.352,2.082,1.281,3.113C489.372,74.27,486.052,76.294,483.606,76.249z"/>
		<path fill-rule="evenodd" clip-rule="evenodd" fill="#3D3D3D" d="M807.86,72.392c-2.562,0.025-4.123-1.119-4.068-2.985
			c0.055-1.844,2.035-3.324,4.52-3.378c2.377-0.053,4.436,1.385,4.416,3.085C812.708,70.903,810.54,72.364,807.86,72.392z"/>
		<path fill-rule="evenodd" clip-rule="evenodd" fill="#3D3D3D" d="M160.654,31.323c0.015,2.277-2.757,5.477-4.735,5.219
			c-1.58-0.207-2.713-1.153-2.689-2.98c0.03-2.314,2.694-5.533,4.641-5.381C159.682,28.321,160.604,29.503,160.654,31.323z"/>
		<path fill-rule="evenodd" clip-rule="evenodd" fill="#3D3D3D" d="M535.833,125.688c-0.109,1.515-0.848,2.565-2.775,2.456
			c-2.271-0.13-5.104-2.878-5.053-4.985c0.047-1.912,1.234-2.555,2.943-2.566C533.575,120.576,535.886,122.887,535.833,125.688z"/>
		<path fill-rule="evenodd" clip-rule="evenodd" fill="#3D3D3D" d="M24.05,114.737c-0.051,3.173-2.876,5.829-5.225,5.657
			c-1.675-0.122-2.832-0.966-2.813-2.819c0.021-2.214,2.967-4.856,5.377-4.499C22.479,113.238,23.431,114.329,24.05,114.737z"/>
		<path fill-rule="evenodd" clip-rule="evenodd" fill="#3D3D3D" d="M275.299,36.074c2.586,0.079,4.657,1.749,4.485,3.737
			c-0.195,2.248-1.961,2.771-3.75,2.878c-2.315,0.138-5.026-2.058-4.905-3.733C271.238,37.47,273.343,36.015,275.299,36.074z"/>
		<path fill-rule="evenodd" clip-rule="evenodd" fill="#3D3D3D" d="M647.155,105.291c-2.143,0.046-3.592-1.151-3.564-2.946
			c0.029-2.07,2.041-3.633,4.871-3.642c1.783-0.005,3.383,0.529,3.652,2.611C652.351,103.148,649.659,105.237,647.155,105.291z"/>
		<path fill-rule="evenodd" clip-rule="evenodd" fill="#3D3D3D" d="M590.62,82.134c0.053,2.345-2.318,4.893-4.68,5.025
			c-2.232,0.126-3.439-1.249-3.027-3.45c0.395-2.1,2.854-4.09,5.068-4.101C589.825,79.601,590.581,80.323,590.62,82.134z"/>
		<path fill-rule="evenodd" clip-rule="evenodd" fill="#3D3D3D" d="M267.849,23.395c-0.94-0.034-1.993-0.88-1.978-2.731
			c0.017-2.217,2.929-4.787,5.283-4.794c2.025-0.006,2.557,1.253,2.547,2.931C273.687,21.198,271.178,23.474,267.849,23.395z"/>
		<path fill-rule="evenodd" clip-rule="evenodd" fill="#3D3D3D" d="M55.204,73.318c-0.008,2.488-2.288,5.09-4.251,4.978
			c-2.02-0.116-2.637-1.539-2.706-3.257c-0.103-2.574,2.06-5.229,4.138-5.06C54.499,70.152,54.943,71.798,55.204,73.318z"/>
		<path fill-rule="evenodd" clip-rule="evenodd" fill="#3D3D3D" d="M24.022,133.358c2.391-0.023,5.376,2.106,5.085,3.817
			c-0.35,2.061-2.083,2.711-3.897,2.807c-2.371,0.125-4.829-1.874-4.847-3.723C20.348,134.681,21.991,133.378,24.022,133.358z"/>
		<path fill-rule="evenodd" clip-rule="evenodd" fill="#3D3D3D" d="M221.646,37.78c2.014,0.027,4.051,1.543,4.013,2.983
			c-0.042,1.587-2.683,3.519-4.818,3.526c-2.35,0.009-4.011-1.316-3.944-3.146C216.964,39.269,219.117,37.745,221.646,37.78z"/>
		<path fill-rule="evenodd" clip-rule="evenodd" fill="#3D3D3D" d="M115.846,70.496c-1.945,0.056-3.266-0.798-3.34-2.799
			c-0.073-1.952,3.071-4.329,5.441-4.114c1.492,0.135,2.991,0.594,3.052,2.566C121.066,68.31,118.463,70.497,115.846,70.496z"/>
		<path fill-rule="evenodd" clip-rule="evenodd" fill="#3D3D3D" d="M169.172,45.44c1.425,1.424,3.06,2.326,3.426,3.596
			c0.545,1.887-1.178,2.814-2.861,3.326c-0.079,0.023-0.167,0.065-0.241,0.051c-1.708-0.328-3.478-0.498-5.075-1.115
			c-0.399-0.153-0.672-2.226-0.262-2.596C165.476,47.513,167.14,46.708,169.172,45.44z"/>
		<path fill-rule="evenodd" clip-rule="evenodd" fill="#3D3D3D" d="M433.268,85.201c-2.451-0.061-4.561-1.77-4.521-3.664
			c0.031-1.6,1.861-3.03,3.881-3.034c2.26-0.004,4.771,1.84,4.795,3.521C437.443,83.491,435.146,85.248,433.268,85.201z"/>
		<path fill-rule="evenodd" clip-rule="evenodd" fill="#3D3D3D" d="M331.016,50.368c-3.314,0.061-5.914-1.966-5.902-3.751
			c0.012-1.563,1.873-2.946,3.939-2.929c2.242,0.02,5.457,2.262,4.85,3.604C333.255,48.723,331.658,49.723,331.016,50.368z"/>
		<path fill-rule="evenodd" clip-rule="evenodd" fill="#3D3D3D" d="M316.592,59.817c2.48-0.064,4.669,2.316,4.72,5.028
			c0.031,1.656-0.569,2.947-2.527,2.999c-2.312,0.062-4.345-2.132-4.363-4.785C314.41,61.422,314.507,59.776,316.592,59.817z"/>
		<path fill-rule="evenodd" clip-rule="evenodd" fill="#3D3D3D" d="M214.08,56.841c2.583,0.021,4.956,2.432,4.874,4.943
			c-0.059,1.818-0.935,2.715-2.807,2.625c-2.267-0.107-5.109-2.865-5.074-4.983C211.099,57.884,212.331,56.825,214.08,56.841z"/>
		<path fill-rule="evenodd" clip-rule="evenodd" fill="#3D3D3D" d="M701.521,95.517c-2.605,0.046-4.426-1.12-4.529-2.902
			c-0.104-1.809,2.186-3.582,4.615-3.574c1.705,0.006,4.176,1.886,4.285,3.26C706.022,93.929,703.923,95.475,701.521,95.517z"/>
		<path fill-rule="evenodd" clip-rule="evenodd" fill="#3D3D3D" d="M756.2,109.221c-1.68-1.183-3.252-2.009-4.414-3.225
			c-0.572-0.601-0.848-2.229-0.438-2.843c0.545-0.812,2-1.637,2.873-1.469c1.51,0.291,3.059,1.131,4.23,2.154
			c0.672,0.585,1.109,2.187,0.783,2.966C758.854,107.716,757.526,108.229,756.2,109.221z"/>
		<path fill-rule="evenodd" clip-rule="evenodd" fill="#3D3D3D" d="M538.366,101.365c2.107-0.026,4.201,1.577,4.121,3.157
			c-0.082,1.642-3.035,3.716-5.143,3.373c-1.686-0.273-3.555-0.658-3.607-2.995C533.694,103.019,535.853,101.397,538.366,101.365z"
			/>
		<path fill-rule="evenodd" clip-rule="evenodd" fill="#3D3D3D" d="M381.443,44.538c-1.863,0.034-3.081-0.721-3.101-2.725
			c-0.021-2.152,2.521-4.312,5.083-4.2c1.705,0.074,3.106,0.812,3.126,2.831C386.572,42.609,384.078,44.573,381.443,44.538z"/>
		<path fill-rule="evenodd" clip-rule="evenodd" fill="#3D3D3D" d="M689.226,74.719c0.047-2.536,2.432-5.164,4.771-4.735
			c1.037,0.19,2.41,1.575,2.617,2.618c0.391,1.983-2.918,5.191-4.871,5.206C690.222,77.819,689.19,76.555,689.226,74.719z"/>
		<path fill-rule="evenodd" clip-rule="evenodd" fill="#3D3D3D" d="M754.827,87.93c-1.342-0.243-2.979-0.378-2.977-2.597
			c0.004-2.213,2.246-4.087,4.979-4.151c1.9-0.046,3.311,0.549,3.326,2.707C760.171,86.099,757.813,87.908,754.827,87.93z"/>
		<path fill-rule="evenodd" clip-rule="evenodd" fill="#3D3D3D" d="M892.284,16.583c-0.01-2.541,1.98-5.209,3.977-5.229
			c2.303-0.023,2.609,1.744,2.689,3.409c0.115,2.412-2.135,5.429-3.918,5.249C893.118,19.819,892.2,18.53,892.284,16.583z"/>
		<path fill-rule="evenodd" clip-rule="evenodd" fill="#3D3D3D" d="M65.352,91.737c-1.714,0.149-2.995-0.666-3.186-2.54
			c-0.203-1.986,2.559-3.984,5.28-3.882c1.606,0.06,3.275,0.213,3.254,2.503C70.68,90.039,68.417,91.765,65.352,91.737z"/>
		<path fill-rule="evenodd" clip-rule="evenodd" fill="#3D3D3D" d="M592.089,99.731c2.305-0.012,4.654,1.775,4.684,3.562
			c0.025,1.675-1.686,3.019-3.855,3.025c-2.441,0.007-5.012-1.892-4.924-3.637C588.065,101.236,590.14,99.742,592.089,99.731z"/>
		<path fill-rule="evenodd" clip-rule="evenodd" fill="#3D3D3D" d="M425.97,100.564c-0.024,1.677-0.542,2.994-2.489,3.069
			c-2.08,0.082-4.906-3.001-4.74-5.312c0.115-1.593,0.879-2.941,2.746-2.936C423.672,95.394,425.984,98.149,425.97,100.564z"/>
		<path fill-rule="evenodd" clip-rule="evenodd" fill="#3D3D3D" d="M380.87,58.264c2.718,0.035,5.243,2.015,5.263,4.09
			c0.02,2.19-1.589,2.526-3.227,2.585c-2.48,0.089-5.624-2.344-5.371-4.227C377.785,58.857,379.156,58.138,380.87,58.264z"/>
		<path fill-rule="evenodd" clip-rule="evenodd" fill="#3D3D3D" d="M865.69,73.694c2.295,0.033,4.984,2.082,4.807,3.82
			c-0.23,2.257-2.041,2.657-3.838,2.705c-2.598,0.07-4.885-1.731-4.893-3.652C861.761,74.815,863.341,73.659,865.69,73.694z"/>
		<path fill-rule="evenodd" clip-rule="evenodd" fill="#3D3D3D" d="M801.147,50.388c-0.031,2.902-2.111,5.183-4.508,5.191
			c-1.809,0.008-2.535-1.105-2.627-2.66c-0.156-2.637,2.219-5.245,4.59-5.26C800.632,47.646,801.069,48.944,801.147,50.388z"/>
		<path fill-rule="evenodd" clip-rule="evenodd" fill="#3D3D3D" d="M908.323,33.946c-1.174-0.026-2.576-0.669-2.607-2.807
			c-0.029-2.125,2.203-3.774,5.004-3.781c1.971-0.005,3.514,1.249,3.432,2.787C914.048,32.104,911.542,33.964,908.323,33.946z"/>
		<path fill-rule="evenodd" clip-rule="evenodd" fill="#3D3D3D" d="M487.317,96.458c-3.152-0.021-5.344-1.801-5.285-4.076
			c0.057-2.177,1.578-2.507,3.264-2.52c2.793-0.021,5.176,1.892,5.037,4.084C490.206,95.949,488.882,96.579,487.317,96.458z"/>
		<path fill-rule="evenodd" clip-rule="evenodd" fill="#3D3D3D" d="M860.331,60.388c-0.41-0.501-1.656-1.351-1.852-2.396
			c-0.439-2.343,1.977-4.544,4.748-4.594c1.525-0.026,3.072,0.092,3.127,2.261C866.415,58.071,864.065,60.269,860.331,60.388z"/>
		<path fill-rule="evenodd" clip-rule="evenodd" fill="#3D3D3D" d="M121.044,88.239c0.072,2.205-1.554,2.553-3.148,2.647
			c-2.467,0.147-5.28-2.013-5.24-4.007c0.038-1.88,1.18-2.76,3.077-2.777C118.505,84.076,120.989,85.97,121.044,88.239z"/>
		<path fill-rule="evenodd" clip-rule="evenodd" fill="#3D3D3D" d="M648.718,123.66c0.053,1.315-1.082,1.97-2.666,2.049
			c-2.754,0.138-5.289-2.025-5.336-4.41c-0.039-2.055,1.295-2.486,2.916-2.522C646.353,118.715,648.681,120.75,648.718,123.66z"/>
	</g>
</g>
<g display="none">
	<path display="inline" fill="#FBD10D" d="M464.423-165.895c4.722,0,8.563,3.841,8.563,8.562c0,4.722-3.842,8.563-8.563,8.563
		s-8.563-3.841-8.563-8.563C455.859-162.054,459.701-165.895,464.423-165.895 M464.423-171.564c-7.86,0-14.232,6.372-14.232,14.232
		c0,7.86,6.372,14.233,14.232,14.233s14.232-6.373,14.232-14.233C478.655-165.192,472.283-171.564,464.423-171.564L464.423-171.564z
		"/>
</g>
<g display="none">
	<g display="inline">
		<path fill="#00848A" d="M119.968-214.57c4.722,0,8.563,3.841,8.563,8.562c0,4.722-3.841,8.563-8.563,8.563
			s-8.563-3.841-8.563-8.563C111.405-210.729,115.246-214.57,119.968-214.57 M119.968-220.239c-7.86,0-14.232,6.372-14.232,14.232
			c0,7.86,6.372,14.233,14.232,14.233s14.232-6.373,14.232-14.233C134.2-213.867,127.828-220.239,119.968-220.239L119.968-220.239z"
			/>
	</g>
</g>
<g display="none">
	<g display="inline">
		<path fill="#00848A" d="M163.773-243.035c4.722,0,8.563,3.841,8.563,8.562c0,4.722-3.841,8.563-8.563,8.563
			s-8.563-3.841-8.563-8.563C155.21-239.193,159.051-243.035,163.773-243.035 M163.773-248.704c-7.86,0-14.232,6.372-14.232,14.232
			c0,7.86,6.372,14.233,14.232,14.233s14.232-6.373,14.232-14.233C178.005-242.332,171.633-248.704,163.773-248.704L163.773-248.704
			z"/>
	</g>
</g>
<g display="none">
	<g display="inline">
		<path fill="#00848A" d="M207.527-214.57c4.722,0,8.563,3.841,8.563,8.562c0,4.722-3.841,8.563-8.563,8.563
			s-8.563-3.841-8.563-8.563C198.964-210.729,202.806-214.57,207.527-214.57 M207.527-220.239c-7.86,0-14.232,6.372-14.232,14.232
			c0,7.86,6.372,14.233,14.232,14.233s14.232-6.373,14.232-14.233C221.76-213.867,215.388-220.239,207.527-220.239L207.527-220.239z
			"/>
	</g>
</g>
</svg>
