<?xml version="1.0" encoding="utf-8"?>
<!-- Generator: Adobe Illustrator 16.0.0, SVG Export Plug-In . SVG Version: 6.00 Build 0)  -->
<!DOCTYPE svg PUBLIC "-//W3C//DTD SVG 1.1//EN" "http://www.w3.org/Graphics/SVG/1.1/DTD/svg11.dtd">
<svg version="1.1" id="Layer_1" xmlns="http://www.w3.org/2000/svg" xmlns:xlink="http://www.w3.org/1999/xlink" x="0px" y="0px"
	 width="393.403px" height="236.585px" viewBox="0 0 393.403 236.585" enable-background="new 0 0 393.403 236.585"
	 xml:space="preserve">
<g>
	<g>
		<path fill="#3D3D3D" d="M137.138,78.748c-0.017-2.461-1.588-3.947-4.083-4.27c-2.123-0.274-4.252-0.881-6.354-0.788
			c-1.476,0.066-3.248,0.718-4.278,1.729c-1.309,1.286-0.576,3.075,0.671,4.205c2.301,2.086,3.694,4.576,4.552,7.554
			c0.301,1.045,1.657,2.435,2.599,2.489c1.258,0.072,3.297-0.676,3.743-1.649C135.39,84.964,136.203,81.64,137.138,78.748z
			 M201.12,77.5c-0.695-0.798-1.438-2.167-2.588-2.863c-2.104-1.271-4.374-2.408-6.724-3.077c-1.307-0.373-3.312-0.152-4.265,0.663
			c-0.785,0.671-1.08,2.921-0.553,3.93c1.475,2.829,2.156,5.653,2.121,8.833c-0.012,1.083,0.989,2.803,1.907,3.116
			c1.202,0.41,3.377,0.226,4.087-0.602c2.134-2.486,3.772-5.4,5.569-8.17C200.887,79.004,200.879,78.534,201.12,77.5z
			 M217.668,116.492c0.516,0.748,1.061,2.418,1.948,2.627c1.438,0.337,3.238,0.026,4.634-0.586c1.617-0.708,2.874-2.197,4.444-3.065
			c3.555-1.965,3.956-4.771,0.993-7.588c-1.313-1.249-2.58-2.56-3.753-3.94c-1.441-1.697-3.135-2.554-5.273-1.659
			c-2.259,0.945-1.912,2.902-1.827,4.896c0.096,2.257-0.238,4.536-0.451,6.8C218.322,114.621,218.032,115.245,217.668,116.492z
			 M259.37,73.015c0.114-2.732-1.171-3.991-3.246-4.486c-2.314-0.552-4.654-1.215-7.006-1.316c-1.39-0.06-3.305,0.493-4.087,1.48
			c-0.645,0.815-0.506,3.118,0.218,3.985c2.077,2.492,3.525,5.112,4.269,8.286c0.241,1.028,1.611,2.366,2.603,2.494
			c1.164,0.15,3.134-0.525,3.605-1.436C257.27,79.04,258.292,75.789,259.37,73.015z M102.461,109.868
			c-2.958,0.044-4.521,1.822-3.885,4.397c0.741,2.998,0.866,5.851-0.085,8.817c-0.503,1.569-0.293,3.195,1.389,4.136
			c1.649,0.922,3.196,0.611,4.635-0.536c1.801-1.435,3.619-2.849,5.42-4.282c2.239-1.783,2.434-4.214,0.393-6.241
			c-1.817-1.805-3.696-3.559-5.653-5.21C103.955,110.341,102.933,110.089,102.461,109.868z M343.984,79.954
			c0.692-0.527,2.021-1.22,2.901-2.284c1.354-1.638,2.353-3.565,3.589-5.307c1.899-2.677,1.337-5.088-1.649-6.525
			c-2.085-1.004-4.185-1.979-6.31-2.895c-1.842-0.793-3.896-0.817-4.923,0.957c-0.64,1.103-0.687,3.205-0.035,4.269
			c1.583,2.588,2.412,5.204,2.468,8.216C340.061,78.3,341.109,79.679,343.984,79.954z M164.894,109.756
			c-0.044-0.226-0.028-0.596-0.184-0.869c-1.626-2.866-3.077-5.869-5.042-8.484c-0.656-0.874-2.766-1.219-3.99-0.916
			c-0.918,0.228-2.052,1.857-2.097,2.905c-0.133,3.099-1.033,5.774-2.571,8.452c-0.627,1.091-0.565,3.165,0.082,4.264
			c0.976,1.658,2.959,1.561,4.727,0.875c1.991-0.771,3.967-1.584,5.964-2.342C163.552,112.969,164.79,111.894,164.894,109.756z
			 M11.585,185.756c-0.663,0.56-2.359,1.354-2.858,2.619c-0.399,1.014,0.274,2.981,1.145,3.857c1.996,2.006,3.534,4.11,4.236,6.89
			c0.451,1.784,1.506,3.279,3.667,3.052c2.061-0.218,3.149-1.553,3.687-3.536c0.493-1.818,1.146-3.608,1.883-5.346
			c1.096-2.582,0.414-5.132-2.002-5.766C18.471,186.772,15.489,186.44,11.585,185.756z M74.014,105.948
			c0.505-5.732-1.561-7.216-7.048-5.335c-1.076,0.369-2.267,0.52-3.411,0.553c-2.245,0.065-3.941,0.886-4.472,3.172
			c-0.523,2.247,0.997,3.424,2.773,4.138c2.492,1.002,4.381,2.597,5.842,4.833c1.019,1.559,2.409,2.646,4.414,1.734
			c2.107-0.956,2.787-2.719,2.482-4.932C74.403,108.723,74.208,107.336,74.014,105.948z M55.512,160.818
			c2.645,0.027,3.791-1.106,4.669-2.798c0.793-1.526,1.69-3.025,2.731-4.392c2.294-3.012,1.604-5.709-1.903-7.121
			c-1.914-0.771-3.803-1.601-5.692-2.43c-1.954-0.857-3.752-0.749-5.233,0.9c-1.374,1.529-0.904,3.142,0.151,4.563
			c1.75,2.357,2.602,4.91,2.669,7.874C52.946,159.255,53.938,160.761,55.512,160.818z M25.744,151.184
			c-1.093-3.727-1.801-7.066-3.077-10.172c-0.875-2.131-3.066-2.057-4.99-1.28c-2.209,0.892-4.506,1.72-6.461,3.028
			c-1.136,0.76-2.287,2.405-2.297,3.66c-0.008,1.063,1.462,2.843,2.544,3.077c3.205,0.693,5.851,2.051,8.31,4.19
			c0.786,0.685,2.665,0.867,3.619,0.404C24.475,153.567,25.083,152.062,25.744,151.184z M362.696,24.062
			c0.396-3.793-1.795-5.513-5.477-4.658c-1.838,0.427-3.709,0.737-5.58,0.997c-1.899,0.264-3.381,1.061-3.858,3.002
			c-0.509,2.067,0.702,3.405,2.409,4.14c2.545,1.096,4.485,2.732,5.92,5.111c0.94,1.559,2.291,2.806,4.339,1.921
			c1.967-0.851,2.85-2.472,2.703-4.614C363.018,27.993,362.85,26.027,362.696,24.062z M301.68,49.332
			c-0.149-0.287-0.3-0.574-0.449-0.861c-1.22,0.958-2.804,1.691-3.569,2.93c-1.01,1.632-0.035,3.269,1.451,4.29
			c2.327,1.599,4.131,3.501,5.082,6.248c0.609,1.757,1.888,3.001,4.013,2.558c2.068-0.431,3.021-1.876,3.321-3.872
			c0.331-2.205,0.682-4.407,1.052-6.605c0.507-3.005-1.217-5.071-4.271-4.999C306.099,49.072,303.89,49.224,301.68,49.332z
			 M281.397,101.893c-0.428,0.196-0.854,0.392-1.281,0.588c0.874,1.153,1.518,2.747,2.677,3.354c1.632,0.854,3.342,0.17,4.643-1.35
			c1.335-1.559,2.784-3.027,4.257-4.459c2.254-2.193,2.212-4.719-0.277-6.574c-1.987-1.479-4.036-2.879-6.099-4.252
			c-1.626-1.082-3.551-1.232-4.803,0.193c-0.81,0.923-1.11,2.692-0.941,3.991C279.946,96.251,280.762,99.06,281.397,101.893z
			 M170.812,105.715c-0.159-0.138-0.317-0.275-0.477-0.412c-1.116,0.887-2.789,1.562-3.223,2.708
			c-0.723,1.906,1.063,2.896,2.583,3.625c0.655,0.314,1.429,0.483,2.158,0.519c1.717,0.081,3.532-0.139,4.087-2.032
			c0.582-1.986-0.963-3.001-2.53-3.705C172.603,106.054,171.683,105.94,170.812,105.715z M24.502,131.705
			c-0.951-1.303-1.52-2.876-2.417-3.095c-0.962-0.233-2.74,0.506-3.256,1.364c-0.873,1.451-1.415,3.336-1.395,5.029
			c0.025,2.141,2.419,3.105,3.946,1.601C22.641,135.36,23.356,133.563,24.502,131.705z M118.062,112.033
			c-1.242,0.402-2.512,0.585-3.532,1.189c-2.155,1.277-2.006,3.467,0.19,4.652c1.79,0.967,5.04,0.589,6.549-0.774
			c1.383-1.25,1.482-2.646,0.009-3.768C120.416,112.677,119.207,112.476,118.062,112.033z M358.904,15.625
			c0.567,0.397,1.515,1.589,2.565,1.689c2.284,0.215,4.917-3.156,4.781-5.74c-0.078-1.491-0.735-2.54-2.418-2.541
			C361.529,9.031,358.874,12.108,358.904,15.625z M297.826,95.632c1.926-1.322,3.649-2.313,5.077-3.625
			c0.337-0.309-0.018-2.037-0.571-2.527c-1.748-1.548-3.854-1.239-5.817-0.327c-1.476,0.685-3.021,1.8-2.263,3.558
			C294.73,93.819,296.311,94.452,297.826,95.632z M207.32,83.294c1.528-1.069,3.141-2.044,4.521-3.278
			c0.315-0.282,0.101-1.702-0.332-2.179c-1.508-1.659-3.511-1.626-5.495-1.016c-1.639,0.504-3.286,1.332-3.063,3.331
			C203.194,82.341,205.114,82.559,207.32,83.294z M263.854,74.769c3.803-0.04,6.681-2.275,6.554-4.381
			c-0.122-2.021-1.669-2.34-3.21-2.37c-2.767-0.054-6.01,2.375-5.513,4.32C261.972,73.464,263.405,74.298,263.854,74.769z
			 M143.813,68.236c-0.505-0.383-1.292-1.408-2.263-1.63c-2.309-0.528-5.863,2.131-5.938,4.522c-0.029,0.906,0.93,2.363,1.771,2.677
			C139.834,74.718,143.739,71.631,143.813,68.236z M312.646,47.824c2.369-0.057,5.199-2.835,5.252-5.236
			c0.041-1.875-0.954-2.767-2.821-2.617c-2.338,0.188-4.91,2.894-4.966,5.228C310.069,46.905,310.819,47.896,312.646,47.824z
			 M30.34,180.46c-0.518-0.35-1.359-1.326-2.342-1.5c-2.324-0.411-5.655,2.19-5.749,4.526c-0.035,0.88,0.768,2.279,1.545,2.615
			C26.35,187.207,30.407,184.082,30.34,180.46z M77.212,91.224c-0.509-0.376-1.388-1.542-2.399-1.67
			c-2.324-0.295-4.899,2.998-4.787,5.733c0.062,1.511,0.638,2.611,2.344,2.636C74.627,97.956,77.332,94.688,77.212,91.224z
			 M357.316,59.497c-2.884-0.035-5.958,2.24-5.911,4.289c0.046,2,1.551,2.421,3.114,2.498c2.712,0.133,5.762-2.162,5.691-4.246
			C360.145,60.089,358.689,59.675,357.316,59.497z M238.301,105.262c-3.092-0.052-5.276,1.391-5.158,3.207
			c0.108,1.684,2.38,3.015,4.933,2.865c0.495-0.028,1.137,0.021,1.45-0.259c1.033-0.921,1.947-1.976,2.907-2.98
			c-0.98-0.898-1.918-1.854-2.965-2.665C239.131,105.169,238.503,105.285,238.301,105.262z M264.741,60.93
			c-3.466,0.042-6.525,2.637-6.53,4.844c-0.004,1.823,1.206,2.463,2.791,2.484c2.562,0.034,5.776-2.617,5.494-4.816
			C266.361,62.39,265.146,61.475,264.741,60.93z M204.18,75.473c2.976-0.041,5.931-2.151,5.842-4.114
			c-0.095-2.106-1.71-2.451-3.387-2.468c-2.792-0.028-5.581,2.019-5.512,4.063C201.194,75.101,202.824,75.332,204.18,75.473z
			 M142.215,80.202c2.958-0.067,5.947-2.362,5.822-4.424c-0.119-1.953-1.548-2.377-3.199-2.349
			c-2.799,0.048-5.619,2.274-5.556,4.414C139.342,79.916,140.87,80.108,142.215,80.202z M167.613,112.899
			c-1.338,0.011-2.843,0.413-2.913,2.484c-0.071,2.106,2.803,4.202,5.631,4.201c1.588-0.001,3.062-0.279,3.16-2.296
			C173.592,115.208,170.726,112.959,167.613,112.899z M237.094,112.278c-2.225,0.593-4.19,0.748-4.431,2.984
			c-0.227,2.097,1.474,3.282,3.259,3.44c1.698,0.151,3.51-0.342,5.17-0.87c0.363-0.115,0.708-2.005,0.356-2.342
			C240.157,114.253,238.569,113.323,237.094,112.278z M23.843,138.566c0.533,0.396,1.451,1.614,2.5,1.74
			c2.214,0.267,4.616-2.846,4.648-5.523c0.019-1.615-0.569-2.8-2.324-2.892C26.451,131.775,23.797,135.013,23.843,138.566z
			 M366.999,22.018c2.567-0.007,5.332-2.72,5.365-5.229c0.021-1.637-0.8-2.454-2.385-2.514c-2.494-0.095-5.605,2.961-5.529,5.411
			C364.501,21.323,365.403,22.056,366.999,22.018z M71.498,146.854c-1.955,1.328-3.629,2.251-4.976,3.521
			c-0.373,0.351-0.095,2.083,0.442,2.581c1.717,1.592,3.956,1.43,5.757,0.334c1.143-0.696,2.48-2.354,2.37-3.444
			C74.993,148.86,73.047,148.062,71.498,146.854z M358.952,66.238c-2.053,1.329-3.761,2.228-5.155,3.477
			c-0.366,0.328-0.085,2.063,0.451,2.589c1.61,1.578,3.799,1.521,5.572,0.516c1.177-0.667,2.57-2.246,2.531-3.37
			C362.317,68.464,360.424,67.542,358.952,66.238z M117.865,126.891c1.602-1.191,3.109-1.974,4.017-3.199
			c0.266-0.359-1.091-2.043-1.864-2.99c-0.313-0.384-1.096-0.66-1.59-0.571c-1.716,0.311-3.445,0.685-5.057,1.319
			c-0.345,0.136-0.582,1.879-0.245,2.178C114.412,124.768,115.953,125.621,117.865,126.891z M66.09,146.982
			c3.686-0.074,6.712-2.312,6.636-4.34c-0.079-2.082-1.644-2.49-3.333-2.461c-2.687,0.047-5.917,2.505-5.443,4.396
			C64.229,145.69,65.647,146.517,66.09,146.982z M28.956,192.552c2.845-0.013,5.941-2.367,5.699-4.47
			c-0.215-1.861-1.616-2.298-3.269-2.254c-2.704,0.07-5.67,2.311-5.57,4.365C25.91,192.117,27.301,192.572,28.956,192.552z
			 M321.248,46.195c-3.604,0.024-6.483,2.468-6.528,4.76c-0.036,1.865,1.124,2.484,2.726,2.489c2.57,0.008,5.84-2.617,5.572-4.771
			C322.887,47.628,321.648,46.721,321.248,46.195z M299.066,102.315c2.862,0.054,5.009-1.301,5.057-3.028
			c0.051-1.785-1.961-3.108-4.695-3.038c-0.656,0.017-1.501-0.043-1.926,0.32c-0.987,0.846-2.336,1.871-2.446,2.935
			c-0.078,0.755,1.574,1.768,2.566,2.517C298.035,102.333,298.74,102.258,299.066,102.315z M83.507,96.105
			c-0.656-0.381-1.676-1.446-2.747-1.499c-2.239-0.11-4.918,2.724-5.102,5.001c-0.146,1.818,0.752,2.854,2.596,2.825
			C80.669,102.394,83.553,99.343,83.507,96.105z M140.713,87.83c2.942,0.043,5.125-1.393,5.013-3.19
			c-0.141-2.279-1.881-2.702-3.728-2.769c-2.528-0.091-4.753,1.393-4.612,3.169C137.563,87.264,139.276,87.702,140.713,87.83z
			 M346.514,62.723c3.153-0.081,5.697-2.502,5.671-4.649c-0.021-1.715-0.988-2.579-2.686-2.556
			c-2.314,0.032-5.153,2.787-4.715,4.874C344.998,61.409,346.13,62.234,346.514,62.723z M317.126,61.216
			c2.619-0.065,4.992-1.839,4.915-3.626c-0.097-2.214-1.748-2.618-3.506-2.64c-2.389-0.029-4.811,1.786-4.72,3.554
			C313.928,60.701,315.689,60.941,317.126,61.216z M203.608,89.747c2.146,0.031,3.761-1.178,3.729-2.793
			c-0.033-1.75-2.195-3.323-4.587-3.335c-2.197-0.011-3.789,1.171-3.74,2.777C199.064,88.145,201.216,89.712,203.608,89.747z
			 M112.734,131.871c1.311-0.09,2.675-0.569,2.641-2.542c-0.034-1.949-2.66-4.021-5.024-3.984c-1.684,0.024-2.957,0.704-2.965,2.599
			C107.376,129.932,109.959,131.894,112.734,131.871z M27.915,200.245c2.359-0.04,4.35-1.509,4.372-3.226
			c0.022-1.697-1.595-2.813-3.999-2.761c-2.414,0.053-4.423,1.489-4.426,3.163C23.859,199.011,25.686,200.283,27.915,200.245z
			 M196.205,71.646c3.115,0.078,5.691-2.226,5.82-4.406c0.103-1.738-0.721-2.65-2.456-2.71c-2.385-0.082-5.167,2.367-4.893,4.63
			C194.801,70.185,195.848,71.098,196.205,71.646z M19.47,176.891c-2.454,0.033-4.731,2.631-4.71,5.002
			c0.015,1.648,0.757,2.743,2.498,2.773c2.02,0.036,4.427-2.728,4.389-5.027C21.621,178.038,20.909,176.937,19.47,176.891z
			 M367.688,29.744c2.778-0.026,5.316-2.076,5.271-4.046c-0.047-1.971-1.396-2.449-3.049-2.452c-2.528-0.006-4.978,1.943-4.92,3.984
			C365.045,29.154,366.392,29.665,367.688,29.744z M68.375,94.081c-0.007-2.118-1.107-3.603-2.634-3.558
			c-1.779,0.052-3.47,2.381-3.405,4.837c0.046,1.745,0.392,3.422,2.643,3.467C66.863,98.865,68.385,96.662,68.375,94.081z
			 M81.604,103.388c-2.613,0.022-5.213,2.099-5.208,4.071c0.005,1.943,1.308,2.512,2.996,2.499c2.459-0.021,4.979-2.016,4.971-3.991
			C84.354,104.01,82.947,103.565,81.604,103.388z M353.431,74.433c-1.578,0.239-3.382,0.564-3.612,2.793
			c-0.172,1.667,2.253,3.465,4.565,3.334c1.767-0.1,3.613-0.458,3.779-2.763C358.29,76.033,356.042,74.433,353.431,74.433z
			 M308.965,41.909c-0.096-1.316-0.558-2.658-2.547-2.626c-2.044,0.032-3.95,2.451-3.914,4.972c0.024,1.656,0.555,2.991,2.52,2.975
			C306.998,47.211,308.975,44.647,308.965,41.909z M134.935,66.434c-0.495-0.392-1.361-1.612-2.401-1.786
			c-2.047-0.343-4.308,2.429-4.342,4.843c-0.023,1.641,0.576,2.762,2.379,2.81C132.676,72.357,134.899,69.81,134.935,66.434z
			 M231.208,105.248c2.655-0.001,5.272-1.917,5.214-3.748c-0.065-2.004-1.495-2.622-3.24-2.649
			c-2.419-0.038-4.864,1.838-4.868,3.736C228.311,104.709,229.854,105.07,231.208,105.248z M67.557,161.265
			c1.486-0.309,3.353-0.512,3.521-2.812c0.13-1.771-2.084-3.388-4.53-3.254c-1.794,0.099-3.579,0.53-3.781,2.775
			C62.61,159.723,64.904,161.309,67.557,161.265z M357.436,13.302c-0.027-1.474-0.339-3.135-2.452-3.429
			c-1.769-0.247-3.668,2.083-3.722,4.553c-0.037,1.722,0.243,3.45,2.433,3.7C355.51,18.333,357.303,16.071,357.436,13.302z
			 M253.129,66.049c2.506-0.025,4.845-2.496,4.838-4.831c-0.005-1.631-0.724-2.711-2.508-2.709c-2.114,0.003-4.502,2.572-4.52,4.856
			C250.927,65.041,251.709,66.014,253.129,66.049z M15.767,135.644c0.037-2.31-1.299-4.244-2.938-4.255
			c-1.637-0.011-3.024,1.882-3.069,4.186c-0.045,2.321,1.277,4.236,2.932,4.249C14.336,139.836,15.729,137.943,15.767,135.644z
			 M168.569,98.711c-3.052-0.04-5.268,1.375-5.115,3.131c0.19,2.181,1.863,2.738,3.731,2.795c2.524,0.077,4.731-1.402,4.595-3.169
			C171.609,99.248,169.947,98.769,168.569,98.711z M27.979,147.594c3.218,0.014,5.876-2.49,5.799-4.685
			c-0.058-1.646-1.064-2.33-2.592-2.362c-2.419-0.051-5.169,2.425-4.823,4.643C26.522,146.202,27.607,147.07,27.979,147.594z
			 M263.38,82.263c2.4-0.034,4.407-1.527,4.323-3.215c-0.078-1.551-1.954-2.831-4.116-2.807c-2.401,0.027-4.354,1.502-4.281,3.236
			C259.373,81.096,261.126,82.295,263.38,82.263z M109.747,112.579c3.309,0.175,6.021-1.682,6.128-3.637
			c0.106-1.924-1.165-2.603-2.836-2.711c-2.538-0.165-5.503,1.93-5.156,3.917C108.07,111.215,109.347,112.09,109.747,112.579z
			 M64.473,138.974c0.041-1.748-0.902-2.607-2.566-2.634c-2.208-0.034-4.669,2.434-4.726,4.646
			c-0.041,1.582,0.699,2.512,2.312,2.618C61.792,143.754,64.407,141.306,64.473,138.974z M289.917,89.928
			c3.398,0.054,6.045-2.053,6.031-4.163c-0.012-1.722-1.053-2.484-2.729-2.512c-2.429-0.041-5.256,2.102-4.992,4.179
			C288.36,88.483,289.537,89.401,289.917,89.928z M232.812,124.49c0.4-0.518,1.629-1.411,1.801-2.475
			c0.318-1.979-2.645-4.244-5.035-4.129c-1.546,0.074-2.779,0.639-2.773,2.476C226.812,122.43,229.487,124.587,232.812,124.49z
			 M163.608,123.479c0.362-0.484,1.457-1.32,1.637-2.321c0.392-2.175-2.337-4.846-4.669-4.868c-1.706-0.017-2.616,0.871-2.614,2.589
			C157.964,121.058,160.43,123.423,163.608,123.479z M293.168,102.624c-1.345,0.09-2.901,0.388-2.949,2.516
			c-0.043,1.894,2.366,3.744,4.854,3.681c1.666-0.041,3.21-0.512,3.292-2.574C298.44,104.323,296.079,102.624,293.168,102.624z"/>
		<path fill-rule="evenodd" clip-rule="evenodd" fill="#3D3D3D" d="M137.138,78.748c-0.935,2.892-1.748,6.216-3.15,9.271
			c-0.446,0.973-2.485,1.721-3.743,1.649c-0.942-0.054-2.298-1.443-2.599-2.489c-0.858-2.979-2.251-5.468-4.552-7.554
			c-1.247-1.13-1.98-2.919-0.671-4.205c1.03-1.012,2.802-1.664,4.278-1.729c2.102-0.094,4.232,0.513,6.354,0.788
			C135.55,74.8,137.121,76.287,137.138,78.748z"/>
		<path fill-rule="evenodd" clip-rule="evenodd" fill="#3D3D3D" d="M201.12,77.5c-0.241,1.033-0.233,1.503-0.445,1.831
			c-1.797,2.77-3.436,5.684-5.569,8.17c-0.71,0.827-2.885,1.012-4.087,0.602c-0.918-0.313-1.919-2.033-1.907-3.116
			c0.035-3.18-0.646-6.004-2.121-8.833c-0.526-1.009-0.232-3.259,0.553-3.93c0.953-0.815,2.958-1.036,4.265-0.663
			c2.35,0.669,4.619,1.807,6.724,3.077C199.682,75.333,200.425,76.702,201.12,77.5z"/>
		<path fill-rule="evenodd" clip-rule="evenodd" fill="#3D3D3D" d="M217.668,116.492c0.364-1.247,0.654-1.871,0.715-2.516
			c0.213-2.264,0.547-4.543,0.451-6.8c-0.085-1.994-0.432-3.951,1.827-4.896c2.139-0.896,3.832-0.038,5.273,1.659
			c1.173,1.381,2.439,2.691,3.753,3.94c2.963,2.817,2.562,5.623-0.993,7.588c-1.57,0.868-2.827,2.357-4.444,3.065
			c-1.396,0.612-3.195,0.923-4.634,0.586C218.729,118.91,218.184,117.24,217.668,116.492z"/>
		<path fill-rule="evenodd" clip-rule="evenodd" fill="#3D3D3D" d="M259.37,73.015c-1.078,2.774-2.101,6.025-3.645,9.006
			c-0.472,0.911-2.441,1.586-3.605,1.436c-0.991-0.128-2.361-1.466-2.603-2.494c-0.743-3.174-2.191-5.794-4.269-8.286
			c-0.724-0.867-0.862-3.17-0.218-3.985c0.782-0.987,2.697-1.541,4.087-1.48c2.352,0.101,4.691,0.765,7.006,1.316
			C258.199,69.023,259.484,70.283,259.37,73.015z"/>
		<path fill-rule="evenodd" clip-rule="evenodd" fill="#3D3D3D" d="M102.461,109.868c0.472,0.221,1.494,0.473,2.215,1.081
			c1.957,1.651,3.835,3.405,5.653,5.21c2.041,2.027,1.846,4.458-0.393,6.241c-1.801,1.434-3.619,2.848-5.42,4.282
			c-1.439,1.147-2.986,1.458-4.635,0.536c-1.682-0.94-1.892-2.566-1.389-4.136c0.951-2.967,0.826-5.819,0.085-8.817
			C97.939,111.69,99.503,109.912,102.461,109.868z"/>
		<path fill-rule="evenodd" clip-rule="evenodd" fill="#3D3D3D" d="M343.984,79.954c-2.875-0.275-3.924-1.654-3.959-3.569
			c-0.056-3.012-0.885-5.628-2.468-8.216c-0.651-1.064-0.604-3.166,0.035-4.269c1.027-1.774,3.081-1.75,4.923-0.957
			c2.125,0.915,4.225,1.891,6.31,2.895c2.986,1.437,3.549,3.848,1.649,6.525c-1.236,1.742-2.234,3.669-3.589,5.307
			C346.006,78.734,344.677,79.427,343.984,79.954z"/>
		<path fill-rule="evenodd" clip-rule="evenodd" fill="#3D3D3D" d="M164.894,109.756c-0.104,2.138-1.341,3.213-3.112,3.885
			c-1.997,0.758-3.973,1.57-5.964,2.342c-1.768,0.686-3.751,0.783-4.727-0.875c-0.646-1.099-0.709-3.173-0.082-4.264
			c1.538-2.678,2.438-5.353,2.571-8.452c0.045-1.048,1.179-2.677,2.097-2.905c1.224-0.304,3.333,0.042,3.99,0.916
			c1.965,2.615,3.416,5.618,5.042,8.484C164.865,109.16,164.85,109.53,164.894,109.756z"/>
		<path fill-rule="evenodd" clip-rule="evenodd" fill="#3D3D3D" d="M11.585,185.756c3.904,0.685,6.886,1.017,9.757,1.771
			c2.416,0.634,3.098,3.184,2.002,5.766c-0.737,1.737-1.39,3.527-1.883,5.346c-0.538,1.983-1.625,3.318-3.687,3.536
			c-2.161,0.228-3.216-1.268-3.667-3.052c-0.703-2.779-2.241-4.884-4.236-6.89c-0.87-0.876-1.544-2.844-1.145-3.857
			C9.226,187.109,10.923,186.315,11.585,185.756z"/>
		<path fill-rule="evenodd" clip-rule="evenodd" fill="#3D3D3D" d="M74.014,105.948c0.193,1.388,0.389,2.774,0.58,4.163
			c0.305,2.213-0.375,3.976-2.482,4.932c-2.005,0.911-3.396-0.176-4.414-1.734c-1.461-2.236-3.35-3.831-5.842-4.833
			c-1.777-0.714-3.296-1.891-2.773-4.138c0.531-2.286,2.228-3.107,4.472-3.172c1.144-0.033,2.334-0.184,3.411-0.553
			C72.454,98.732,74.519,100.216,74.014,105.948z"/>
		<path fill-rule="evenodd" clip-rule="evenodd" fill="#3D3D3D" d="M55.512,160.818c-1.575-0.058-2.566-1.563-2.608-3.402
			c-0.067-2.964-0.92-5.517-2.669-7.874c-1.055-1.422-1.524-3.034-0.151-4.563c1.481-1.649,3.28-1.758,5.233-0.9
			c1.889,0.829,3.779,1.659,5.692,2.43c3.508,1.412,4.197,4.109,1.903,7.121c-1.041,1.366-1.938,2.865-2.731,4.392
			C59.303,159.712,58.157,160.846,55.512,160.818z"/>
		<path fill-rule="evenodd" clip-rule="evenodd" fill="#3D3D3D" d="M25.744,151.184c-0.662,0.878-1.269,2.384-2.352,2.908
			c-0.955,0.463-2.833,0.28-3.619-0.404c-2.458-2.14-5.105-3.497-8.31-4.19c-1.082-0.234-2.553-2.014-2.544-3.077
			c0.01-1.255,1.161-2.9,2.297-3.66c1.956-1.309,4.252-2.137,6.461-3.028c1.923-0.776,4.114-0.851,4.99,1.28
			C23.943,144.117,24.651,147.457,25.744,151.184z"/>
		<path fill-rule="evenodd" clip-rule="evenodd" fill="#3D3D3D" d="M362.696,24.062c0.153,1.966,0.321,3.932,0.456,5.899
			c0.146,2.142-0.736,3.763-2.703,4.614c-2.048,0.885-3.398-0.362-4.339-1.921c-1.435-2.379-3.375-4.015-5.92-5.111
			c-1.707-0.735-2.918-2.073-2.409-4.14c0.478-1.941,1.959-2.738,3.858-3.002c1.871-0.26,3.742-0.569,5.58-0.997
			C360.901,18.548,363.092,20.269,362.696,24.062z"/>
		<path fill-rule="evenodd" clip-rule="evenodd" fill="#3D3D3D" d="M301.68,49.332c2.21-0.107,4.419-0.259,6.63-0.311
			c3.054-0.072,4.777,1.994,4.271,4.999c-0.37,2.198-0.721,4.4-1.052,6.605c-0.3,1.996-1.253,3.441-3.321,3.872
			c-2.125,0.443-3.403-0.801-4.013-2.558c-0.951-2.747-2.755-4.649-5.082-6.248c-1.486-1.021-2.461-2.657-1.451-4.29
			c0.766-1.239,2.35-1.972,3.569-2.93C301.38,48.757,301.53,49.044,301.68,49.332z"/>
		<path fill-rule="evenodd" clip-rule="evenodd" fill="#3D3D3D" d="M281.397,101.893c-0.636-2.833-1.451-5.642-1.825-8.509
			c-0.169-1.299,0.132-3.068,0.941-3.991c1.252-1.425,3.177-1.275,4.803-0.193c2.062,1.373,4.111,2.772,6.099,4.252
			c2.489,1.855,2.531,4.381,0.277,6.574c-1.473,1.432-2.922,2.901-4.257,4.459c-1.301,1.52-3.011,2.203-4.643,1.35
			c-1.159-0.607-1.803-2.201-2.677-3.354C280.544,102.285,280.97,102.089,281.397,101.893z"/>
		<path fill-rule="evenodd" clip-rule="evenodd" fill="#3D3D3D" d="M170.812,105.715c0.87,0.226,1.791,0.339,2.599,0.702
			c1.567,0.704,3.112,1.719,2.53,3.705c-0.555,1.894-2.371,2.113-4.087,2.032c-0.729-0.035-1.502-0.204-2.158-0.519
			c-1.52-0.729-3.306-1.719-2.583-3.625c0.434-1.146,2.106-1.821,3.223-2.708C170.495,105.439,170.654,105.577,170.812,105.715z"/>
		<path fill-rule="evenodd" clip-rule="evenodd" fill="#3D3D3D" d="M24.502,131.705c-1.146,1.858-1.862,3.655-3.123,4.899
			c-1.526,1.505-3.92,0.54-3.946-1.601c-0.02-1.693,0.522-3.578,1.395-5.029c0.516-0.858,2.294-1.598,3.256-1.364
			C22.982,128.829,23.551,130.402,24.502,131.705z"/>
		<path fill-rule="evenodd" clip-rule="evenodd" fill="#3D3D3D" d="M118.062,112.033c1.146,0.442,2.354,0.644,3.216,1.3
			c1.473,1.121,1.375,2.518-0.009,3.768c-1.509,1.363-4.759,1.741-6.549,0.774c-2.196-1.186-2.346-3.375-0.19-4.652
			C115.55,112.618,116.819,112.436,118.062,112.033z"/>
		<path fill-rule="evenodd" clip-rule="evenodd" fill="#3D3D3D" d="M358.904,15.625c-0.03-3.518,2.625-6.594,4.929-6.592
			c1.683,0.001,2.34,1.05,2.418,2.541c0.136,2.583-2.497,5.955-4.781,5.74C360.419,17.215,359.472,16.023,358.904,15.625z"/>
		<path fill-rule="evenodd" clip-rule="evenodd" fill="#3D3D3D" d="M297.826,95.632c-1.516-1.18-3.096-1.813-3.574-2.921
			c-0.758-1.758,0.787-2.873,2.263-3.558c1.964-0.912,4.069-1.221,5.817,0.327c0.554,0.491,0.908,2.218,0.571,2.527
			C301.476,93.319,299.752,94.311,297.826,95.632z"/>
		<path fill-rule="evenodd" clip-rule="evenodd" fill="#3D3D3D" d="M207.32,83.294c-2.206-0.735-4.126-0.953-4.369-3.143
			c-0.223-1.999,1.425-2.827,3.063-3.331c1.984-0.61,3.987-0.643,5.495,1.016c0.433,0.477,0.647,1.896,0.332,2.179
			C210.461,81.25,208.849,82.225,207.32,83.294z"/>
		<path fill-rule="evenodd" clip-rule="evenodd" fill="#3D3D3D" d="M263.854,74.769c-0.448-0.471-1.882-1.305-2.169-2.431
			c-0.497-1.946,2.746-4.375,5.513-4.32c1.541,0.03,3.088,0.349,3.21,2.37C270.534,72.494,267.656,74.729,263.854,74.769z"/>
		<path fill-rule="evenodd" clip-rule="evenodd" fill="#3D3D3D" d="M143.813,68.236c-0.074,3.395-3.979,6.481-6.43,5.568
			c-0.841-0.313-1.8-1.771-1.771-2.677c0.075-2.391,3.63-5.05,5.938-4.522C142.521,66.828,143.308,67.854,143.813,68.236z"/>
		<path fill-rule="evenodd" clip-rule="evenodd" fill="#3D3D3D" d="M312.646,47.823c-1.827,0.074-2.577-0.918-2.536-2.625
			c0.056-2.333,2.628-5.04,4.966-5.228c1.867-0.15,2.862,0.742,2.821,2.617C317.845,44.988,315.015,47.767,312.646,47.823z"/>
		<path fill-rule="evenodd" clip-rule="evenodd" fill="#3D3D3D" d="M30.34,180.46c0.067,3.622-3.99,6.747-6.545,5.642
			c-0.778-0.336-1.581-1.735-1.545-2.615c0.093-2.336,3.424-4.938,5.749-4.526C28.981,179.134,29.823,180.11,30.34,180.46z"/>
		<path fill-rule="evenodd" clip-rule="evenodd" fill="#3D3D3D" d="M77.212,91.224c0.12,3.464-2.585,6.732-4.842,6.699
			c-1.706-0.025-2.282-1.125-2.344-2.636c-0.112-2.735,2.463-6.028,4.787-5.733C75.824,89.682,76.703,90.847,77.212,91.224z"/>
		<path fill-rule="evenodd" clip-rule="evenodd" fill="#3D3D3D" d="M357.316,59.497c1.373,0.178,2.828,0.592,2.895,2.541
			c0.07,2.084-2.979,4.379-5.691,4.246c-1.563-0.077-3.068-0.498-3.114-2.498C351.358,61.737,354.433,59.462,357.316,59.497z"/>
		<path fill-rule="evenodd" clip-rule="evenodd" fill="#3D3D3D" d="M238.301,105.262c0.202,0.023,0.83-0.093,1.167,0.168
			c1.047,0.812,1.984,1.767,2.965,2.665c-0.96,1.005-1.874,2.06-2.907,2.98c-0.313,0.28-0.955,0.23-1.45,0.259
			c-2.553,0.149-4.824-1.182-4.933-2.865C233.024,106.652,235.209,105.21,238.301,105.262z"/>
		<path fill-rule="evenodd" clip-rule="evenodd" fill="#3D3D3D" d="M264.741,60.93c0.405,0.545,1.62,1.459,1.755,2.513
			c0.282,2.199-2.933,4.85-5.494,4.816c-1.585-0.021-2.795-0.661-2.791-2.484C258.216,63.567,261.275,60.972,264.741,60.93z"/>
		<path fill-rule="evenodd" clip-rule="evenodd" fill="#3D3D3D" d="M204.18,75.473c-1.355-0.141-2.985-0.372-3.057-2.518
			c-0.069-2.044,2.72-4.091,5.512-4.063c1.677,0.017,3.292,0.362,3.387,2.468C210.11,73.321,207.155,75.432,204.18,75.473z"/>
		<path fill-rule="evenodd" clip-rule="evenodd" fill="#3D3D3D" d="M142.215,80.202c-1.345-0.094-2.873-0.287-2.934-2.358
			c-0.063-2.14,2.757-4.366,5.556-4.414c1.651-0.028,3.081,0.396,3.199,2.349C148.163,77.84,145.173,80.135,142.215,80.202z"/>
		<path fill-rule="evenodd" clip-rule="evenodd" fill="#3D3D3D" d="M167.613,112.899c3.113,0.06,5.979,2.309,5.878,4.39
			c-0.098,2.017-1.572,2.295-3.16,2.296c-2.828,0.001-5.702-2.095-5.631-4.201C164.77,113.312,166.275,112.91,167.613,112.899z"/>
		<path fill-rule="evenodd" clip-rule="evenodd" fill="#3D3D3D" d="M237.094,112.278c1.476,1.045,3.063,1.975,4.354,3.213
			c0.352,0.337,0.007,2.227-0.356,2.342c-1.66,0.528-3.472,1.021-5.17,0.87c-1.785-0.158-3.485-1.344-3.259-3.44
			C232.903,113.026,234.869,112.871,237.094,112.278z"/>
		<path fill-rule="evenodd" clip-rule="evenodd" fill="#3D3D3D" d="M23.843,138.566c-0.046-3.554,2.608-6.791,4.824-6.675
			c1.755,0.092,2.343,1.276,2.324,2.892c-0.032,2.678-2.434,5.79-4.648,5.523C25.294,140.181,24.376,138.962,23.843,138.566z"/>
		<path fill-rule="evenodd" clip-rule="evenodd" fill="#3D3D3D" d="M366.998,22.019c-1.595,0.037-2.497-0.696-2.548-2.333
			c-0.076-2.45,3.035-5.506,5.529-5.411c1.585,0.06,2.405,0.877,2.385,2.514C372.331,19.298,369.566,22.011,366.998,22.019z"/>
		<path fill-rule="evenodd" clip-rule="evenodd" fill="#3D3D3D" d="M71.498,146.854c1.549,1.207,3.495,2.006,3.594,2.991
			c0.11,1.09-1.228,2.748-2.37,3.444c-1.802,1.096-4.041,1.258-5.757-0.334c-0.537-0.498-0.815-2.23-0.442-2.581
			C67.869,149.105,69.543,148.183,71.498,146.854z"/>
		<path fill-rule="evenodd" clip-rule="evenodd" fill="#3D3D3D" d="M358.952,66.238c1.472,1.304,3.365,2.226,3.399,3.212
			c0.039,1.125-1.354,2.703-2.531,3.37c-1.773,1.005-3.962,1.062-5.572-0.516c-0.536-0.526-0.817-2.261-0.451-2.589
			C355.191,68.466,356.899,67.567,358.952,66.238z"/>
		<path fill-rule="evenodd" clip-rule="evenodd" fill="#3D3D3D" d="M117.865,126.891c-1.912-1.27-3.453-2.123-4.739-3.264
			c-0.337-0.299-0.1-2.042,0.245-2.178c1.611-0.635,3.341-1.009,5.057-1.319c0.494-0.089,1.277,0.188,1.59,0.571
			c0.773,0.947,2.13,2.631,1.864,2.99C120.974,124.917,119.467,125.699,117.865,126.891z"/>
		<path fill-rule="evenodd" clip-rule="evenodd" fill="#3D3D3D" d="M66.09,146.982c-0.442-0.466-1.86-1.292-2.14-2.404
			c-0.475-1.892,2.756-4.35,5.443-4.396c1.689-0.029,3.254,0.379,3.333,2.461C72.802,144.67,69.775,146.908,66.09,146.982z"/>
		<path fill-rule="evenodd" clip-rule="evenodd" fill="#3D3D3D" d="M28.957,192.55c-1.656,0.022-3.047-0.433-3.141-2.356
			c-0.101-2.055,2.866-4.295,5.57-4.365c1.652-0.044,3.054,0.393,3.269,2.254C34.897,190.185,31.801,192.539,28.957,192.55z"/>
		<path fill-rule="evenodd" clip-rule="evenodd" fill="#3D3D3D" d="M321.248,46.195c0.4,0.526,1.639,1.433,1.77,2.479
			c0.268,2.153-3.002,4.778-5.572,4.771c-1.602-0.005-2.762-0.625-2.726-2.489C314.765,48.664,317.645,46.22,321.248,46.195z"/>
		<path fill-rule="evenodd" clip-rule="evenodd" fill="#3D3D3D" d="M299.066,102.315c-0.326-0.058-1.031,0.018-1.444-0.294
			c-0.992-0.749-2.645-1.761-2.566-2.517c0.11-1.064,1.459-2.089,2.446-2.935c0.425-0.364,1.27-0.304,1.926-0.32
			c2.734-0.07,4.746,1.253,4.695,3.038C304.075,101.014,301.929,102.369,299.066,102.315z"/>
		<path fill-rule="evenodd" clip-rule="evenodd" fill="#3D3D3D" d="M83.507,96.105c0.046,3.237-2.837,6.289-5.253,6.327
			c-1.843,0.029-2.742-1.006-2.596-2.825c0.184-2.277,2.863-5.112,5.102-5.001C81.831,94.659,82.851,95.725,83.507,96.105z"/>
		<path fill-rule="evenodd" clip-rule="evenodd" fill="#3D3D3D" d="M140.713,87.83c-1.438-0.127-3.15-0.566-3.327-2.79
			c-0.141-1.776,2.084-3.26,4.612-3.169c1.847,0.067,3.587,0.49,3.728,2.769C145.838,86.437,143.656,87.873,140.713,87.83z"/>
		<path fill-rule="evenodd" clip-rule="evenodd" fill="#3D3D3D" d="M346.514,62.723c-0.384-0.489-1.516-1.313-1.729-2.331
			c-0.438-2.087,2.4-4.842,4.715-4.874c1.697-0.023,2.665,0.841,2.686,2.556C352.211,60.22,349.667,62.642,346.514,62.723z"/>
		<path fill-rule="evenodd" clip-rule="evenodd" fill="#3D3D3D" d="M317.126,61.216c-1.437-0.275-3.198-0.515-3.311-2.712
			c-0.091-1.769,2.331-3.583,4.72-3.554c1.758,0.022,3.409,0.426,3.506,2.64C322.118,59.377,319.745,61.15,317.126,61.216z"/>
		<path fill-rule="evenodd" clip-rule="evenodd" fill="#3D3D3D" d="M203.608,89.747c-2.393-0.035-4.544-1.603-4.598-3.351
			c-0.049-1.606,1.543-2.789,3.74-2.777c2.392,0.012,4.554,1.585,4.587,3.335C207.369,88.569,205.755,89.778,203.608,89.747z"/>
		<path fill-rule="evenodd" clip-rule="evenodd" fill="#3D3D3D" d="M112.734,131.871c-2.775,0.022-5.358-1.939-5.349-3.928
			c0.009-1.895,1.282-2.574,2.965-2.599c2.365-0.036,4.991,2.035,5.024,3.984C115.409,131.302,114.045,131.781,112.734,131.871z"/>
		<path fill-rule="evenodd" clip-rule="evenodd" fill="#3D3D3D" d="M27.915,200.245c-2.229,0.038-4.056-1.234-4.053-2.823
			c0.003-1.674,2.012-3.11,4.426-3.163c2.404-0.053,4.021,1.063,3.999,2.761C32.265,198.736,30.273,200.205,27.915,200.245z"/>
		<path fill-rule="evenodd" clip-rule="evenodd" fill="#3D3D3D" d="M196.205,71.646c-0.357-0.548-1.404-1.461-1.528-2.486
			c-0.274-2.263,2.508-4.712,4.893-4.63c1.735,0.06,2.559,0.972,2.456,2.71C201.896,69.42,199.32,71.724,196.205,71.646z"/>
		<path fill-rule="evenodd" clip-rule="evenodd" fill="#3D3D3D" d="M19.47,176.891c1.438,0.046,2.15,1.147,2.177,2.748
			c0.039,2.3-2.369,5.063-4.389,5.027c-1.741-0.03-2.483-1.125-2.498-2.773C14.739,179.521,17.017,176.924,19.47,176.891z"/>
		<path fill-rule="evenodd" clip-rule="evenodd" fill="#3D3D3D" d="M367.688,29.744c-1.297-0.079-2.644-0.59-2.698-2.515
			c-0.058-2.041,2.392-3.99,4.92-3.984c1.653,0.003,3.002,0.481,3.049,2.452C373.005,27.668,370.467,29.718,367.688,29.744z"/>
		<path fill-rule="evenodd" clip-rule="evenodd" fill="#3D3D3D" d="M68.375,94.081c0.009,2.581-1.512,4.784-3.396,4.747
			c-2.251-0.045-2.597-1.723-2.643-3.467c-0.065-2.456,1.626-4.785,3.405-4.837C67.268,90.478,68.368,91.963,68.375,94.081z"/>
		<path fill-rule="evenodd" clip-rule="evenodd" fill="#3D3D3D" d="M81.604,103.388c1.342,0.177,2.75,0.622,2.758,2.579
			c0.008,1.976-2.512,3.971-4.971,3.991c-1.688,0.013-2.991-0.556-2.996-2.499C76.391,105.487,78.992,103.411,81.604,103.388z"/>
		<path fill-rule="evenodd" clip-rule="evenodd" fill="#3D3D3D" d="M353.431,74.433c2.611,0,4.859,1.6,4.732,3.364
			c-0.166,2.306-2.013,2.663-3.779,2.763c-2.312,0.131-4.737-1.667-4.565-3.334C350.049,74.997,351.853,74.671,353.431,74.433z"/>
		<path fill-rule="evenodd" clip-rule="evenodd" fill="#3D3D3D" d="M308.965,41.909c0.01,2.739-1.967,5.303-3.941,5.32
			c-1.965,0.017-2.495-1.318-2.52-2.975c-0.036-2.521,1.87-4.939,3.914-4.972C308.407,39.251,308.869,40.592,308.965,41.909z"/>
		<path fill-rule="evenodd" clip-rule="evenodd" fill="#3D3D3D" d="M134.935,66.434c-0.035,3.376-2.258,5.924-4.364,5.867
			c-1.803-0.048-2.402-1.169-2.379-2.81c0.034-2.415,2.294-5.186,4.342-4.843C133.574,64.822,134.439,66.042,134.935,66.434z"/>
		<path fill-rule="evenodd" clip-rule="evenodd" fill="#3D3D3D" d="M231.208,105.248c-1.354-0.178-2.897-0.539-2.895-2.66
			c0.004-1.898,2.449-3.774,4.868-3.736c1.745,0.027,3.175,0.645,3.24,2.649C236.48,103.331,233.863,105.247,231.208,105.248z"/>
		<path fill-rule="evenodd" clip-rule="evenodd" fill="#3D3D3D" d="M67.557,161.265c-2.653,0.044-4.947-1.542-4.79-3.29
			c0.202-2.245,1.987-2.677,3.781-2.775c2.446-0.134,4.661,1.482,4.53,3.254C70.91,160.753,69.043,160.956,67.557,161.265z"/>
		<path fill-rule="evenodd" clip-rule="evenodd" fill="#3D3D3D" d="M357.436,13.302c-0.133,2.77-1.926,5.032-3.741,4.824
			c-2.189-0.25-2.47-1.979-2.433-3.7c0.054-2.47,1.953-4.8,3.722-4.553C357.097,10.167,357.408,11.828,357.436,13.302z"/>
		<path fill-rule="evenodd" clip-rule="evenodd" fill="#3D3D3D" d="M253.129,66.049c-1.42-0.036-2.202-1.009-2.189-2.684
			c0.018-2.284,2.405-4.853,4.52-4.856c1.784-0.002,2.503,1.078,2.508,2.709C257.974,63.553,255.635,66.024,253.129,66.049z"/>
		<path fill-rule="evenodd" clip-rule="evenodd" fill="#3D3D3D" d="M15.767,135.644c-0.038,2.3-1.431,4.192-3.076,4.18
			c-1.655-0.013-2.977-1.928-2.932-4.249c0.045-2.304,1.433-4.196,3.069-4.186C14.468,131.399,15.804,133.334,15.767,135.644z"/>
		<path fill-rule="evenodd" clip-rule="evenodd" fill="#3D3D3D" d="M168.569,98.711c1.378,0.058,3.04,0.537,3.211,2.758
			c0.137,1.767-2.07,3.246-4.595,3.169c-1.868-0.058-3.541-0.614-3.731-2.795C163.302,100.086,165.517,98.671,168.569,98.711z"/>
		<path fill-rule="evenodd" clip-rule="evenodd" fill="#3D3D3D" d="M27.979,147.594c-0.373-0.523-1.457-1.392-1.616-2.404
			c-0.347-2.218,2.404-4.693,4.823-4.643c1.528,0.032,2.534,0.717,2.592,2.362C33.855,145.104,31.197,147.607,27.979,147.594z"/>
		<path fill-rule="evenodd" clip-rule="evenodd" fill="#3D3D3D" d="M263.38,82.263c-2.254,0.032-4.007-1.167-4.074-2.786
			c-0.072-1.734,1.88-3.209,4.281-3.236c2.162-0.024,4.038,1.255,4.116,2.807C267.787,80.736,265.78,82.229,263.38,82.263z"/>
		<path fill-rule="evenodd" clip-rule="evenodd" fill="#3D3D3D" d="M109.747,112.579c-0.4-0.489-1.677-1.364-1.863-2.431
			c-0.348-1.987,2.618-4.082,5.156-3.917c1.671,0.108,2.942,0.787,2.836,2.711C115.767,110.897,113.056,112.754,109.747,112.579z"/>
		<path fill-rule="evenodd" clip-rule="evenodd" fill="#3D3D3D" d="M64.473,138.974c-0.066,2.332-2.681,4.78-4.98,4.63
			c-1.613-0.106-2.353-1.036-2.312-2.618c0.057-2.212,2.518-4.68,4.726-4.646C63.571,136.366,64.514,137.226,64.473,138.974z"/>
		<path fill-rule="evenodd" clip-rule="evenodd" fill="#3D3D3D" d="M289.917,89.928c-0.38-0.527-1.557-1.445-1.69-2.496
			c-0.264-2.077,2.563-4.22,4.992-4.179c1.677,0.028,2.718,0.79,2.729,2.512C295.962,87.875,293.315,89.982,289.917,89.928z"/>
		<path fill-rule="evenodd" clip-rule="evenodd" fill="#3D3D3D" d="M232.812,124.49c-3.324,0.097-6-2.061-6.008-4.128
			c-0.006-1.837,1.228-2.401,2.773-2.476c2.391-0.115,5.354,2.15,5.035,4.129C234.44,123.079,233.212,123.973,232.812,124.49z"/>
		<path fill-rule="evenodd" clip-rule="evenodd" fill="#3D3D3D" d="M163.608,123.479c-3.178-0.056-5.644-2.421-5.647-4.601
			c-0.002-1.718,0.908-2.605,2.614-2.589c2.333,0.022,5.061,2.693,4.669,4.868C165.064,122.158,163.97,122.994,163.608,123.479z"/>
		<path fill-rule="evenodd" clip-rule="evenodd" fill="#3D3D3D" d="M293.168,102.624c2.911,0,5.272,1.699,5.196,3.622
			c-0.082,2.062-1.626,2.533-3.292,2.574c-2.487,0.063-4.896-1.787-4.854-3.681C290.267,103.012,291.823,102.714,293.168,102.624z"
			/>
	</g>
</g>
<g display="none">
	<path display="inline" fill="#FBD10D" d="M464.423,278.69c4.722,0,8.563,3.841,8.563,8.562c0,4.722-3.842,8.563-8.563,8.563
		s-8.563-3.841-8.563-8.563C455.859,282.531,459.701,278.69,464.423,278.69 M464.423,273.021c-7.86,0-14.232,6.372-14.232,14.232
		c0,7.86,6.372,14.233,14.232,14.233s14.232-6.373,14.232-14.233C478.655,279.393,472.283,273.021,464.423,273.021L464.423,273.021z
		"/>
</g>
<g display="none">
	<g display="inline">
		<path fill="#00848A" d="M119.968,230.015c4.722,0,8.563,3.841,8.563,8.562c0,4.722-3.841,8.563-8.563,8.563
			s-8.563-3.841-8.563-8.563C111.405,233.856,115.246,230.015,119.968,230.015 M119.968,224.346c-7.86,0-14.232,6.372-14.232,14.232
			c0,7.86,6.372,14.233,14.232,14.233s14.232-6.373,14.232-14.233C134.2,230.718,127.828,224.346,119.968,224.346L119.968,224.346z"
			/>
	</g>
</g>
<g display="none">
	<g display="inline">
		<path fill="#00848A" d="M163.773,201.55c4.722,0,8.563,3.841,8.563,8.562c0,4.722-3.841,8.563-8.563,8.563
			s-8.563-3.841-8.563-8.563C155.21,205.392,159.051,201.55,163.773,201.55 M163.773,195.881c-7.86,0-14.232,6.372-14.232,14.232
			c0,7.86,6.372,14.233,14.232,14.233s14.232-6.373,14.232-14.233C178.005,202.253,171.633,195.881,163.773,195.881L163.773,195.881
			z"/>
	</g>
</g>
<g display="none">
	<g display="inline">
		<path fill="#00848A" d="M207.527,230.015c4.722,0,8.563,3.841,8.563,8.562c0,4.722-3.841,8.563-8.563,8.563
			s-8.563-3.841-8.563-8.563C198.964,233.856,202.806,230.015,207.527,230.015 M207.527,224.346c-7.86,0-14.232,6.372-14.232,14.232
			c0,7.86,6.372,14.233,14.232,14.233s14.232-6.373,14.232-14.233C221.76,230.718,215.388,224.346,207.527,224.346L207.527,224.346z
			"/>
	</g>
</g>
</svg>
