<?xml version="1.0" encoding="utf-8"?>
<!-- Generator: Adobe Illustrator 16.0.0, SVG Export Plug-In . SVG Version: 6.00 Build 0)  -->
<!DOCTYPE svg PUBLIC "-//W3C//DTD SVG 1.1//EN" "http://www.w3.org/Graphics/SVG/1.1/DTD/svg11.dtd">
<svg version="1.1" id="Layer_1" xmlns="http://www.w3.org/2000/svg" xmlns:xlink="http://www.w3.org/1999/xlink" x="0px" y="0px"
	 width="268.057px" height="166.639px" viewBox="307 0 268.057 166.639" enable-background="new 307 0 268.057 166.639"
	 xml:space="preserve">
<g>
	<path fill="#20B4AD" d="M506.931,67.416c-4.397-7.184-11.123-11.134-19.824-11.062c-2.429,0.068-4.713,0.348-7.088,1.191
		c-3.893,1.384-7.166,3.385-9.846,6.486c-2.435,2.813-3.966,6.011-5.102,9.583c-1.67,5.244-0.772,10.16,1.163,14.965
		c1.491,3.694,4.243,6.602,7.098,9.358c4.041,3.909,8.142,7.768,12.015,11.835c1.377,1.449,2.263,1.487,3.57,0.196
		c3.807-3.755,7.782-7.345,11.416-11.255c2.738-2.947,5.705-5.646,7.532-9.505C511.452,81.636,511.131,74.274,506.931,67.416z
		 M503.848,84.258c-0.706,3.069-2.673,5.686-5.016,7.937c-3.445,3.312-6.778,6.741-10.188,10.094
		c-0.819,0.807-1.779,1.141-2.729,0.137c-4.188-4.439-8.892-8.383-12.726-13.164c-2.311-2.88-3.319-6.18-3.062-9.471
		c-0.354-8.378,4.396-14.562,11.26-16.799c8.315-2.71,16.845,0.016,21.3,8.541C504.885,75.728,504.826,80.005,503.848,84.258z"/>
	<path fill="#20B4AD" d="M401.343,110.009c5.048-5.078,10.178-10.076,15.154-15.222c4.221-4.363,6.215-9.691,6.229-16.646
		c-0.129-5.705-2.586-11.406-7.416-15.688c-6.274-5.562-13.553-7.517-21.974-5.055c-7.162,2.096-12.018,6.648-14.747,13.183
		c-3.398,8.132-2.238,16.039,3.441,22.95c4.947,6.018,10.934,11.053,16.289,16.688C399.419,111.376,400.367,110.99,401.343,110.009z
		 M397.577,101.583c-3.854-3.993-8.086-7.614-11.604-11.937c-3.033-3.725-3.852-8.062-3.281-12.674
		c0.852-6.884,4.921-11.41,11.109-14.057c1.878-0.807,4.061-0.836,6.177-0.79c7.046,0.138,12.191,3.196,15.375,9.646
		c3.373,6.841,1.498,14.911-3.115,19.567c-3.363,3.398-6.693,6.829-10.064,10.218C400.171,103.576,399.516,103.592,397.577,101.583z
		"/>
</g>
<g opacity="0.8">
	<path fill="#FFFFFF" d="M482.403,114.713c-8.123-8.485-16.544-16.688-24.854-24.994c-2.638-2.639-5.187-5.368-8.01-7.825
		c-0.631-0.55-1.346-1.345-1.229-2.163c2.835-2.718,5.688-5.417,8.356-8.288c2.737-2.945,5.705-5.645,7.531-9.505
		c2.771-5.855,3.198-11.585,1.313-17.052c-0.555-1.604-1.298-3.188-2.25-4.746c-4.398-7.182-11.123-11.134-19.824-11.06
		c-2.43,0.066-4.713,0.346-7.088,1.189c-3.893,1.384-7.166,3.387-9.846,6.486c-2.248,2.601-3.722,5.53-4.829,8.777
		c-0.091,0.268-0.185,0.532-0.271,0.806c-1.67,5.246-0.772,10.162,1.163,14.965c1.491,3.696,4.243,6.604,7.098,9.36
		c3.083,2.981,6.199,5.937,9.226,8.977c0.354,0.663-0.076,1.17-1.291,2.384c-10.218,10.203-20.396,20.443-30.658,30.604
		c-4.099,4.057-7.142,8.566-7.556,14.51c-0.339,4.841,0.229,9.455,2.78,13.734c2.677,4.492,6.312,7.639,11.214,9.65
		c5.023,2.066,10.087,1.971,15.051,0.723c4.557-1.146,8.206-4.186,11.327-7.719c3.269-3.695,3.688-3.764,7.081-0.305
		c4.242,4.328,8.933,7.779,15.177,8.537c7.706,0.938,14.479-1.018,19.814-6.768c3.324-3.584,5.575-7.664,5.969-12.861
		C488.306,125.476,486.987,119.501,482.403,114.713z M429.527,61.984c-1.472-1.835-2.41-3.841-2.835-5.905
		c-0.241-1.178-0.319-2.37-0.227-3.564c-0.354-8.378,4.396-14.562,11.26-16.799c8.315-2.71,16.845,0.016,21.299,8.541
		c1.92,3.671,2.116,7.403,1.479,11.127c-0.092,0.534-0.198,1.067-0.321,1.601c-0.707,3.069-2.673,5.688-5.016,7.938
		c-3.445,3.312-6.778,6.741-10.188,10.092c-0.819,0.807-1.778,1.142-2.729,0.137C438.062,70.708,433.361,66.765,429.527,61.984z
		 M444.828,130.192c-0.855,0.867-1.307,1.123-2.436,0.086c-4.381-4.015-8.363-8.421-12.62-12.556
		c-1.353-1.312-1.554-4.825-0.606-6.716c0.737-1.476,2.498-2.359,4.954-2.351c1.497-0.365,2.82,0.479,4.033,1.601
		c1.271,1.176,2.619,2.288,3.764,3.579c1.303,1.473,2.274,1.047,3.43-0.146c1.392-1.438,2.823-2.854,4.37-4.118
		c1.873-1.529,5.476-1.271,7.254,0.354c1.783,1.635,2.021,6.029,0.301,7.78C453.153,121.898,448.957,126.013,444.828,130.192z
		 M481.692,134.14c-1.405,4.631-3.945,8.277-8.231,10.406c-3.672,1.822-7.459,2.643-11.812,1.668
		c-5.881-1.318-9.021-5.83-12.98-9.463c-1.138-1.045-0.283-1.941,0.434-2.635c2.295-2.229,4.574-4.475,6.947-6.628
		c2.792-2.533,5.708-5.021,7.518-8.518c0.802-1.548,0.584-3.08,0.763-4.631c0.912-6.773-6.287-12.401-12.294-11.699
		c-2.688,0.314-5.051,1.525-7.011,3.324c-1.224,1.122-1.98,0.97-3.144-0.047c-2.509-2.197-5.379-3.672-8.863-3.289
		c-7.868,0.867-12.638,9.167-9.212,16.267c1.964,4.067,5.808,6.442,8.68,9.692c1.927,2.18,4.085,4.156,6.179,6.182
		c0.548,0.529,0.727,0.898,0.146,1.533c-4.438,4.895-8.865,9.764-16.062,10.424c-4.332,0.398-8.104-1.174-11.356-3.68
		c-7.738-5.959-9.335-17.021-2.282-24.663c7.1-7.688,14.855-14.729,22.163-22.217c3.587-3.675,7.295-7.232,10.879-10.911
		c1.012-1.039,1.662-1.08,2.673-0.004c3.353,3.572,6.552,7.346,10.261,10.515c4.646,3.97,8.746,8.46,13.007,12.778
		c4.107,4.162,9.019,7.618,12.002,12.83C482.396,125.4,483.084,129.552,481.692,134.14z"/>
</g>
</svg>
